G04 #@! TF.GenerationSoftware,KiCad,Pcbnew,5.1.10*
G04 #@! TF.CreationDate,2021-08-11T21:54:59-06:00*
G04 #@! TF.ProjectId,Speedometer-Top,53706565-646f-46d6-9574-65722d546f70,rev?*
G04 #@! TF.SameCoordinates,Original*
G04 #@! TF.FileFunction,Copper,L1,Top*
G04 #@! TF.FilePolarity,Positive*
%FSLAX46Y46*%
G04 Gerber Fmt 4.6, Leading zero omitted, Abs format (unit mm)*
G04 Created by KiCad (PCBNEW 5.1.10) date 2021-08-11 21:54:59*
%MOMM*%
%LPD*%
G01*
G04 APERTURE LIST*
G04 #@! TA.AperFunction,ComponentPad*
%ADD10O,1.700000X1.700000*%
G04 #@! TD*
G04 #@! TA.AperFunction,ComponentPad*
%ADD11R,1.700000X1.700000*%
G04 #@! TD*
G04 #@! TA.AperFunction,SMDPad,CuDef*
%ADD12R,0.800000X0.900000*%
G04 #@! TD*
G04 #@! TA.AperFunction,ViaPad*
%ADD13C,0.800000*%
G04 #@! TD*
G04 #@! TA.AperFunction,Conductor*
%ADD14C,0.750000*%
G04 #@! TD*
G04 #@! TA.AperFunction,Conductor*
%ADD15C,0.250000*%
G04 #@! TD*
G04 #@! TA.AperFunction,Conductor*
%ADD16C,0.500000*%
G04 #@! TD*
G04 #@! TA.AperFunction,Conductor*
%ADD17C,0.254000*%
G04 #@! TD*
G04 #@! TA.AperFunction,Conductor*
%ADD18C,0.100000*%
G04 #@! TD*
G04 APERTURE END LIST*
D10*
G04 #@! TO.P,U2,5*
G04 #@! TO.N,/I2C_SCL*
X53340000Y-17780000D03*
G04 #@! TO.P,U2,4*
G04 #@! TO.N,/I2C_SDA*
X50800000Y-17780000D03*
G04 #@! TO.P,U2,3*
G04 #@! TO.N,/GND*
X48260000Y-17780000D03*
G04 #@! TO.P,U2,2*
G04 #@! TO.N,/V5P0*
X45720000Y-17780000D03*
D11*
G04 #@! TO.P,U2,1*
G04 #@! TO.N,/V3P3*
X43180000Y-17780000D03*
G04 #@! TD*
G04 #@! TO.P,R6,2*
G04 #@! TO.N,/V3P3*
G04 #@! TA.AperFunction,SMDPad,CuDef*
G36*
G01*
X53065000Y-22015000D02*
X53615000Y-22015000D01*
G75*
G02*
X53815000Y-22215000I0J-200000D01*
G01*
X53815000Y-22615000D01*
G75*
G02*
X53615000Y-22815000I-200000J0D01*
G01*
X53065000Y-22815000D01*
G75*
G02*
X52865000Y-22615000I0J200000D01*
G01*
X52865000Y-22215000D01*
G75*
G02*
X53065000Y-22015000I200000J0D01*
G01*
G37*
G04 #@! TD.AperFunction*
G04 #@! TO.P,R6,1*
G04 #@! TO.N,/I2C_SCL*
G04 #@! TA.AperFunction,SMDPad,CuDef*
G36*
G01*
X53065000Y-20365000D02*
X53615000Y-20365000D01*
G75*
G02*
X53815000Y-20565000I0J-200000D01*
G01*
X53815000Y-20965000D01*
G75*
G02*
X53615000Y-21165000I-200000J0D01*
G01*
X53065000Y-21165000D01*
G75*
G02*
X52865000Y-20965000I0J200000D01*
G01*
X52865000Y-20565000D01*
G75*
G02*
X53065000Y-20365000I200000J0D01*
G01*
G37*
G04 #@! TD.AperFunction*
G04 #@! TD*
G04 #@! TO.P,R5,2*
G04 #@! TO.N,/V3P3*
G04 #@! TA.AperFunction,SMDPad,CuDef*
G36*
G01*
X50525000Y-22015000D02*
X51075000Y-22015000D01*
G75*
G02*
X51275000Y-22215000I0J-200000D01*
G01*
X51275000Y-22615000D01*
G75*
G02*
X51075000Y-22815000I-200000J0D01*
G01*
X50525000Y-22815000D01*
G75*
G02*
X50325000Y-22615000I0J200000D01*
G01*
X50325000Y-22215000D01*
G75*
G02*
X50525000Y-22015000I200000J0D01*
G01*
G37*
G04 #@! TD.AperFunction*
G04 #@! TO.P,R5,1*
G04 #@! TO.N,/I2C_SDA*
G04 #@! TA.AperFunction,SMDPad,CuDef*
G36*
G01*
X50525000Y-20365000D02*
X51075000Y-20365000D01*
G75*
G02*
X51275000Y-20565000I0J-200000D01*
G01*
X51275000Y-20965000D01*
G75*
G02*
X51075000Y-21165000I-200000J0D01*
G01*
X50525000Y-21165000D01*
G75*
G02*
X50325000Y-20965000I0J200000D01*
G01*
X50325000Y-20565000D01*
G75*
G02*
X50525000Y-20365000I200000J0D01*
G01*
G37*
G04 #@! TD.AperFunction*
G04 #@! TD*
D10*
G04 #@! TO.P,J1,20*
G04 #@! TO.N,/P5.5*
X27940000Y-43180000D03*
G04 #@! TO.P,J1,19*
G04 #@! TO.N,/P6.4*
X25400000Y-43180000D03*
G04 #@! TO.P,J1,18*
G04 #@! TO.N,/P5.4*
X27940000Y-40640000D03*
G04 #@! TO.P,J1,17*
G04 #@! TO.N,/P6.5*
X25400000Y-40640000D03*
G04 #@! TO.P,J1,16*
G04 #@! TO.N,/P4.7*
X27940000Y-38100000D03*
G04 #@! TO.P,J1,15*
G04 #@! TO.N,/P4.6*
X25400000Y-38100000D03*
G04 #@! TO.P,J1,14*
G04 #@! TO.N,/P4.5*
X27940000Y-35560000D03*
G04 #@! TO.P,J1,13*
G04 #@! TO.N,/P1.5*
X25400000Y-35560000D03*
G04 #@! TO.P,J1,12*
G04 #@! TO.N,/P4.4*
X27940000Y-33020000D03*
G04 #@! TO.P,J1,11*
G04 #@! TO.N,/P4.3*
X25400000Y-33020000D03*
G04 #@! TO.P,J1,10*
G04 #@! TO.N,/SPEED_A*
X27940000Y-30480000D03*
G04 #@! TO.P,J1,9*
G04 #@! TO.N,/P4.1*
X25400000Y-30480000D03*
G04 #@! TO.P,J1,8*
G04 #@! TO.N,/P4.0*
X27940000Y-27940000D03*
G04 #@! TO.P,J1,7*
G04 #@! TO.N,/P3.3*
X25400000Y-27940000D03*
G04 #@! TO.P,J1,6*
G04 #@! TO.N,/FUEL_ADC*
X27940000Y-25400000D03*
G04 #@! TO.P,J1,5*
G04 #@! TO.N,/P3.2*
X25400000Y-25400000D03*
G04 #@! TO.P,J1,4*
G04 #@! TO.N,/GND*
X27940000Y-22860000D03*
G04 #@! TO.P,J1,3*
G04 #@! TO.N,/P6.0*
X25400000Y-22860000D03*
G04 #@! TO.P,J1,2*
G04 #@! TO.N,/V5P0*
X27940000Y-20320000D03*
D11*
G04 #@! TO.P,J1,1*
G04 #@! TO.N,/V3P3*
X25400000Y-20320000D03*
G04 #@! TD*
D10*
G04 #@! TO.P,U1,16*
G04 #@! TO.N,/GND*
X55880000Y-46990000D03*
G04 #@! TO.P,U1,15*
G04 #@! TO.N,Net-(R3-Pad1)*
X53340000Y-46990000D03*
G04 #@! TO.P,U1,14*
G04 #@! TO.N,/MCU_D7*
X50800000Y-46990000D03*
G04 #@! TO.P,U1,13*
G04 #@! TO.N,/MCU_D6*
X48260000Y-46990000D03*
G04 #@! TO.P,U1,12*
G04 #@! TO.N,/MCU_D5*
X45720000Y-46990000D03*
G04 #@! TO.P,U1,11*
G04 #@! TO.N,/MCU_D4*
X43180000Y-46990000D03*
G04 #@! TO.P,U1,10*
G04 #@! TO.N,/MCU_D3*
X40640000Y-46990000D03*
G04 #@! TO.P,U1,9*
G04 #@! TO.N,/MCU_D2*
X38100000Y-46990000D03*
G04 #@! TO.P,U1,8*
G04 #@! TO.N,/MCU_D1*
X35560000Y-46990000D03*
G04 #@! TO.P,U1,7*
G04 #@! TO.N,/MCU_D0*
X33020000Y-46990000D03*
G04 #@! TO.P,U1,6*
G04 #@! TO.N,/MCU_EN*
X30480000Y-46990000D03*
G04 #@! TO.P,U1,5*
G04 #@! TO.N,/MCU_RW*
X27940000Y-46990000D03*
G04 #@! TO.P,U1,4*
G04 #@! TO.N,/MCU_RS*
X25400000Y-46990000D03*
G04 #@! TO.P,U1,3*
G04 #@! TO.N,Net-(R1-Pad1)*
X22860000Y-46990000D03*
G04 #@! TO.P,U1,2*
G04 #@! TO.N,/V5P0*
X20320000Y-46990000D03*
D11*
G04 #@! TO.P,U1,1*
G04 #@! TO.N,/GND*
X17780000Y-46990000D03*
G04 #@! TD*
G04 #@! TO.P,R4,2*
G04 #@! TO.N,/V5P0*
G04 #@! TA.AperFunction,SMDPad,CuDef*
G36*
G01*
X63075000Y-51795000D02*
X63075000Y-52345000D01*
G75*
G02*
X62875000Y-52545000I-200000J0D01*
G01*
X62475000Y-52545000D01*
G75*
G02*
X62275000Y-52345000I0J200000D01*
G01*
X62275000Y-51795000D01*
G75*
G02*
X62475000Y-51595000I200000J0D01*
G01*
X62875000Y-51595000D01*
G75*
G02*
X63075000Y-51795000I0J-200000D01*
G01*
G37*
G04 #@! TD.AperFunction*
G04 #@! TO.P,R4,1*
G04 #@! TO.N,/MCU_BLA*
G04 #@! TA.AperFunction,SMDPad,CuDef*
G36*
G01*
X64725000Y-51795000D02*
X64725000Y-52345000D01*
G75*
G02*
X64525000Y-52545000I-200000J0D01*
G01*
X64125000Y-52545000D01*
G75*
G02*
X63925000Y-52345000I0J200000D01*
G01*
X63925000Y-51795000D01*
G75*
G02*
X64125000Y-51595000I200000J0D01*
G01*
X64525000Y-51595000D01*
G75*
G02*
X64725000Y-51795000I0J-200000D01*
G01*
G37*
G04 #@! TD.AperFunction*
G04 #@! TD*
G04 #@! TO.P,R3,2*
G04 #@! TO.N,Net-(Q1-Pad3)*
G04 #@! TA.AperFunction,SMDPad,CuDef*
G36*
G01*
X60940000Y-44725000D02*
X60940000Y-44175000D01*
G75*
G02*
X61140000Y-43975000I200000J0D01*
G01*
X61540000Y-43975000D01*
G75*
G02*
X61740000Y-44175000I0J-200000D01*
G01*
X61740000Y-44725000D01*
G75*
G02*
X61540000Y-44925000I-200000J0D01*
G01*
X61140000Y-44925000D01*
G75*
G02*
X60940000Y-44725000I0J200000D01*
G01*
G37*
G04 #@! TD.AperFunction*
G04 #@! TO.P,R3,1*
G04 #@! TO.N,Net-(R3-Pad1)*
G04 #@! TA.AperFunction,SMDPad,CuDef*
G36*
G01*
X59290000Y-44725000D02*
X59290000Y-44175000D01*
G75*
G02*
X59490000Y-43975000I200000J0D01*
G01*
X59890000Y-43975000D01*
G75*
G02*
X60090000Y-44175000I0J-200000D01*
G01*
X60090000Y-44725000D01*
G75*
G02*
X59890000Y-44925000I-200000J0D01*
G01*
X59490000Y-44925000D01*
G75*
G02*
X59290000Y-44725000I0J200000D01*
G01*
G37*
G04 #@! TD.AperFunction*
G04 #@! TD*
G04 #@! TO.P,R2,2*
G04 #@! TO.N,Net-(R1-Pad1)*
G04 #@! TA.AperFunction,SMDPad,CuDef*
G36*
G01*
X34015000Y-35985000D02*
X34565000Y-35985000D01*
G75*
G02*
X34765000Y-36185000I0J-200000D01*
G01*
X34765000Y-36585000D01*
G75*
G02*
X34565000Y-36785000I-200000J0D01*
G01*
X34015000Y-36785000D01*
G75*
G02*
X33815000Y-36585000I0J200000D01*
G01*
X33815000Y-36185000D01*
G75*
G02*
X34015000Y-35985000I200000J0D01*
G01*
G37*
G04 #@! TD.AperFunction*
G04 #@! TO.P,R2,1*
G04 #@! TO.N,/GND*
G04 #@! TA.AperFunction,SMDPad,CuDef*
G36*
G01*
X34015000Y-34335000D02*
X34565000Y-34335000D01*
G75*
G02*
X34765000Y-34535000I0J-200000D01*
G01*
X34765000Y-34935000D01*
G75*
G02*
X34565000Y-35135000I-200000J0D01*
G01*
X34015000Y-35135000D01*
G75*
G02*
X33815000Y-34935000I0J200000D01*
G01*
X33815000Y-34535000D01*
G75*
G02*
X34015000Y-34335000I200000J0D01*
G01*
G37*
G04 #@! TD.AperFunction*
G04 #@! TD*
G04 #@! TO.P,R1,2*
G04 #@! TO.N,/V5P0*
G04 #@! TA.AperFunction,SMDPad,CuDef*
G36*
G01*
X32025000Y-35135000D02*
X31475000Y-35135000D01*
G75*
G02*
X31275000Y-34935000I0J200000D01*
G01*
X31275000Y-34535000D01*
G75*
G02*
X31475000Y-34335000I200000J0D01*
G01*
X32025000Y-34335000D01*
G75*
G02*
X32225000Y-34535000I0J-200000D01*
G01*
X32225000Y-34935000D01*
G75*
G02*
X32025000Y-35135000I-200000J0D01*
G01*
G37*
G04 #@! TD.AperFunction*
G04 #@! TO.P,R1,1*
G04 #@! TO.N,Net-(R1-Pad1)*
G04 #@! TA.AperFunction,SMDPad,CuDef*
G36*
G01*
X32025000Y-36785000D02*
X31475000Y-36785000D01*
G75*
G02*
X31275000Y-36585000I0J200000D01*
G01*
X31275000Y-36185000D01*
G75*
G02*
X31475000Y-35985000I200000J0D01*
G01*
X32025000Y-35985000D01*
G75*
G02*
X32225000Y-36185000I0J-200000D01*
G01*
X32225000Y-36585000D01*
G75*
G02*
X32025000Y-36785000I-200000J0D01*
G01*
G37*
G04 #@! TD.AperFunction*
G04 #@! TD*
D12*
G04 #@! TO.P,Q1,3*
G04 #@! TO.N,Net-(Q1-Pad3)*
X63500000Y-47260000D03*
G04 #@! TO.P,Q1,2*
G04 #@! TO.N,/MCU_BLA*
X64450000Y-49260000D03*
G04 #@! TO.P,Q1,1*
G04 #@! TO.N,/V5P0*
X62550000Y-49260000D03*
G04 #@! TD*
D10*
G04 #@! TO.P,J2,20*
G04 #@! TO.N,/MCU_BLA*
X71120000Y-43180000D03*
G04 #@! TO.P,J2,19*
G04 #@! TO.N,/MCU_D7*
X68580000Y-43180000D03*
G04 #@! TO.P,J2,18*
G04 #@! TO.N,/MCU_D6*
X71120000Y-40640000D03*
G04 #@! TO.P,J2,17*
G04 #@! TO.N,/MCU_D5*
X68580000Y-40640000D03*
G04 #@! TO.P,J2,16*
G04 #@! TO.N,/MCU_D4*
X71120000Y-38100000D03*
G04 #@! TO.P,J2,15*
G04 #@! TO.N,/MCU_D3*
X68580000Y-38100000D03*
G04 #@! TO.P,J2,14*
G04 #@! TO.N,/I2C_SCL*
X71120000Y-35560000D03*
G04 #@! TO.P,J2,13*
G04 #@! TO.N,/MCU_D2*
X68580000Y-35560000D03*
G04 #@! TO.P,J2,12*
G04 #@! TO.N,/I2C_SDA*
X71120000Y-33020000D03*
G04 #@! TO.P,J2,11*
G04 #@! TO.N,/MCU_D1*
X68580000Y-33020000D03*
G04 #@! TO.P,J2,10*
G04 #@! TO.N,/RST*
X71120000Y-30480000D03*
G04 #@! TO.P,J2,9*
G04 #@! TO.N,/MCU_D0*
X68580000Y-30480000D03*
G04 #@! TO.P,J2,8*
G04 #@! TO.N,/MCU_EN*
X71120000Y-27940000D03*
G04 #@! TO.P,J2,7*
G04 #@! TO.N,/MCU_RW*
X68580000Y-27940000D03*
G04 #@! TO.P,J2,6*
G04 #@! TO.N,/MCU_RS*
X71120000Y-25400000D03*
G04 #@! TO.P,J2,5*
G04 #@! TO.N,/P2.4*
X68580000Y-25400000D03*
G04 #@! TO.P,J2,4*
G04 #@! TO.N,/P2.5*
X71120000Y-22860000D03*
G04 #@! TO.P,J2,3*
G04 #@! TO.N,/P2.6*
X68580000Y-22860000D03*
G04 #@! TO.P,J2,2*
G04 #@! TO.N,/GND*
X71120000Y-20320000D03*
D11*
G04 #@! TO.P,J2,1*
G04 #@! TO.N,/P2.7*
X68580000Y-20320000D03*
G04 #@! TD*
D13*
G04 #@! TO.N,/GND*
X53340000Y-50800000D03*
X49530000Y-50800000D03*
X45720000Y-50800000D03*
X71120000Y-50800000D03*
X71120000Y-16510000D03*
X67310000Y-16510000D03*
X63500000Y-16510000D03*
X59690000Y-16510000D03*
X55880000Y-16510000D03*
X63500000Y-20320000D03*
X59690000Y-20320000D03*
X55880000Y-20320000D03*
X31750000Y-31750000D03*
X31750000Y-27940000D03*
X31750000Y-24130000D03*
X35560000Y-24130000D03*
X35560000Y-27940000D03*
X35560000Y-31750000D03*
X39370000Y-27940000D03*
X39370000Y-24130000D03*
X43180000Y-24130000D03*
X30480000Y-20320000D03*
X35560000Y-20320000D03*
X39370000Y-20320000D03*
X39370000Y-16510000D03*
X35560000Y-16510000D03*
X43180000Y-20320000D03*
X74930000Y-46990000D03*
X74930000Y-43180000D03*
X78740000Y-43180000D03*
X78740000Y-46990000D03*
X74930000Y-31750000D03*
X74930000Y-27940000D03*
X78740000Y-27940000D03*
X78740000Y-31750000D03*
X74930000Y-39370000D03*
X74930000Y-35560000D03*
X78740000Y-35560000D03*
X78740000Y-39370000D03*
X74930000Y-16510000D03*
X78740000Y-16510000D03*
X74930000Y-24130000D03*
X74930000Y-20320000D03*
X78740000Y-20320000D03*
X78740000Y-24130000D03*
X16510000Y-16510000D03*
X20320000Y-16510000D03*
X24130000Y-16510000D03*
X16510000Y-20320000D03*
X20320000Y-20320000D03*
X20320000Y-24130000D03*
X16510000Y-24130000D03*
X16510000Y-27940000D03*
X20320000Y-27940000D03*
X20320000Y-31750000D03*
X16510000Y-31750000D03*
X16510000Y-35560000D03*
X20320000Y-35560000D03*
X20320000Y-39370000D03*
X16510000Y-39370000D03*
X16510000Y-43180000D03*
X20320000Y-43180000D03*
X16510000Y-50800000D03*
X20320000Y-50800000D03*
X24130000Y-50800000D03*
X27940000Y-50800000D03*
X31750000Y-50800000D03*
X35560000Y-50800000D03*
X39370000Y-50800000D03*
X64770000Y-44450000D03*
X59690000Y-46990000D03*
X57150000Y-50800000D03*
X60960000Y-50800000D03*
X71120000Y-46990000D03*
X78740000Y-50800000D03*
X74930000Y-50800000D03*
X67310000Y-50800000D03*
G04 #@! TD*
D14*
G04 #@! TO.N,/V5P0*
X62675000Y-49385000D02*
X62550000Y-49260000D01*
X62675000Y-52070000D02*
X62675000Y-49385000D01*
X20320000Y-46990000D02*
X22860000Y-49530000D01*
X62280000Y-49530000D02*
X62550000Y-49260000D01*
X22860000Y-49530000D02*
X62280000Y-49530000D01*
X22860000Y-44450000D02*
X20320000Y-46990000D01*
D15*
X29115001Y-38664001D02*
X28409002Y-39370000D01*
X31750000Y-34735000D02*
X29115001Y-37369999D01*
X29115001Y-37369999D02*
X29115001Y-38664001D01*
D14*
X22860000Y-39370000D02*
X22860000Y-44450000D01*
X22860000Y-19050000D02*
X22860000Y-39370000D01*
X24130000Y-17780000D02*
X22860000Y-19050000D01*
X27940000Y-17780000D02*
X24130000Y-17780000D01*
X27940000Y-20320000D02*
X27940000Y-17780000D01*
X30480000Y-15240000D02*
X27940000Y-17780000D01*
X45720000Y-16510000D02*
X44450000Y-15240000D01*
X44450000Y-15240000D02*
X30480000Y-15240000D01*
X45720000Y-17780000D02*
X45720000Y-16510000D01*
D15*
X28409002Y-39370000D02*
X22860000Y-39370000D01*
G04 #@! TO.N,/V3P3*
X53340000Y-22415000D02*
X50800000Y-22415000D01*
X47815000Y-22415000D02*
X43180000Y-17780000D01*
X50800000Y-22415000D02*
X47815000Y-22415000D01*
X26575001Y-21495001D02*
X25400000Y-20320000D01*
X39464999Y-21495001D02*
X26575001Y-21495001D01*
X43180000Y-17780000D02*
X39464999Y-21495001D01*
G04 #@! TO.N,/MCU_BLA*
X65040000Y-49260000D02*
X64450000Y-49260000D01*
X71120000Y-43180000D02*
X65040000Y-49260000D01*
X64325000Y-49385000D02*
X64450000Y-49260000D01*
X64325000Y-52070000D02*
X64325000Y-49385000D01*
G04 #@! TO.N,/MCU_D7*
X54610000Y-43180000D02*
X50800000Y-46990000D01*
X68580000Y-43180000D02*
X54610000Y-43180000D01*
G04 #@! TO.N,/MCU_D6*
X53340000Y-41910000D02*
X48260000Y-46990000D01*
X69850000Y-41910000D02*
X53340000Y-41910000D01*
X71120000Y-40640000D02*
X69850000Y-41910000D01*
G04 #@! TO.N,/MCU_D5*
X52070000Y-40640000D02*
X45720000Y-46990000D01*
X68580000Y-40640000D02*
X52070000Y-40640000D01*
G04 #@! TO.N,/MCU_D4*
X50800000Y-39370000D02*
X43180000Y-46990000D01*
X69850000Y-39370000D02*
X50800000Y-39370000D01*
X71120000Y-38100000D02*
X69850000Y-39370000D01*
G04 #@! TO.N,/MCU_D3*
X49530000Y-38100000D02*
X40640000Y-46990000D01*
X68580000Y-38100000D02*
X49530000Y-38100000D01*
G04 #@! TO.N,/I2C_SCL*
X53340000Y-20765000D02*
X53340000Y-17780000D01*
X53815000Y-20765000D02*
X53340000Y-20765000D01*
X54640000Y-21590000D02*
X53815000Y-20765000D01*
X71589002Y-21590000D02*
X54640000Y-21590000D01*
X72945373Y-22946371D02*
X71589002Y-21590000D01*
X72945373Y-33734627D02*
X72945373Y-22946371D01*
X71120000Y-35560000D02*
X72945373Y-33734627D01*
G04 #@! TO.N,/MCU_D2*
X68580000Y-35560000D02*
X49530000Y-35560000D01*
X49530000Y-35560000D02*
X38100000Y-46990000D01*
G04 #@! TO.N,/I2C_SDA*
X50800000Y-20765000D02*
X50800000Y-17780000D01*
X53732477Y-21589999D02*
X51624999Y-21589999D01*
X56271966Y-24129488D02*
X53732477Y-21589999D01*
X51624999Y-21589999D02*
X50800000Y-20765000D01*
X72390000Y-24930998D02*
X71588490Y-24129488D01*
X72390000Y-31750000D02*
X72390000Y-24930998D01*
X71588490Y-24129488D02*
X56271966Y-24129488D01*
X71120000Y-33020000D02*
X72390000Y-31750000D01*
G04 #@! TO.N,/MCU_D1*
X68580000Y-33020000D02*
X49530000Y-33020000D01*
X49530000Y-33020000D02*
X35560000Y-46990000D01*
G04 #@! TO.N,/MCU_D0*
X68580000Y-30480000D02*
X49530000Y-30480000D01*
X49530000Y-30480000D02*
X33020000Y-46990000D01*
G04 #@! TO.N,/MCU_EN*
X71120000Y-27940000D02*
X69850000Y-29210000D01*
X69850000Y-29210000D02*
X48260000Y-29210000D01*
X48260000Y-29210000D02*
X30480000Y-46990000D01*
G04 #@! TO.N,/MCU_RW*
X68580000Y-27940000D02*
X46990000Y-27940000D01*
X46990000Y-27940000D02*
X27940000Y-46990000D01*
G04 #@! TO.N,/MCU_RS*
X71120000Y-25400000D02*
X69850000Y-26670000D01*
X25869002Y-46990000D02*
X25400000Y-46990000D01*
X69944999Y-26575001D02*
X71120000Y-25400000D01*
X45814999Y-26575001D02*
X69944999Y-26575001D01*
X45814999Y-26575001D02*
X30480000Y-41910000D01*
X30480000Y-41910000D02*
X30480000Y-43153885D01*
X30480000Y-43153885D02*
X28501448Y-45132437D01*
X27257563Y-45132437D02*
X25400000Y-46990000D01*
X28501448Y-45132437D02*
X27257563Y-45132437D01*
D16*
G04 #@! TO.N,Net-(Q1-Pad3)*
X63500000Y-46610000D02*
X61340000Y-44450000D01*
X63500000Y-47260000D02*
X63500000Y-46610000D01*
D15*
G04 #@! TO.N,Net-(R1-Pad1)*
X28504001Y-41815001D02*
X31750000Y-38569002D01*
X27565997Y-41815001D02*
X28504001Y-41815001D01*
X31750000Y-38569002D02*
X31750000Y-36385000D01*
X26764999Y-42615999D02*
X27565997Y-41815001D01*
X26764999Y-43554003D02*
X26764999Y-42615999D01*
X23329002Y-46990000D02*
X26764999Y-43554003D01*
X22860000Y-46990000D02*
X23329002Y-46990000D01*
X31750000Y-36385000D02*
X34290000Y-36385000D01*
D16*
G04 #@! TO.N,Net-(R3-Pad1)*
X55880000Y-44450000D02*
X53340000Y-46990000D01*
X59690000Y-44450000D02*
X55880000Y-44450000D01*
G04 #@! TD*
D17*
G04 #@! TO.N,/GND*
X80620001Y-16783382D02*
X80620000Y-50526619D01*
X78466620Y-52680000D01*
X65291643Y-52680000D01*
X65299278Y-52665716D01*
X65346969Y-52508500D01*
X65363072Y-52345000D01*
X65363072Y-51795000D01*
X65346969Y-51631500D01*
X65299278Y-51474284D01*
X65221831Y-51329392D01*
X65117606Y-51202394D01*
X65085000Y-51175635D01*
X65085000Y-50302287D01*
X65094180Y-50299502D01*
X65204494Y-50240537D01*
X65301185Y-50161185D01*
X65380537Y-50064494D01*
X65439502Y-49954180D01*
X65456143Y-49899321D01*
X65464276Y-49894974D01*
X65580001Y-49800001D01*
X65603804Y-49770997D01*
X70753593Y-44621210D01*
X70973740Y-44665000D01*
X71266260Y-44665000D01*
X71553158Y-44607932D01*
X71823411Y-44495990D01*
X72066632Y-44333475D01*
X72273475Y-44126632D01*
X72435990Y-43883411D01*
X72547932Y-43613158D01*
X72605000Y-43326260D01*
X72605000Y-43033740D01*
X72547932Y-42746842D01*
X72435990Y-42476589D01*
X72273475Y-42233368D01*
X72066632Y-42026525D01*
X71892240Y-41910000D01*
X72066632Y-41793475D01*
X72273475Y-41586632D01*
X72435990Y-41343411D01*
X72547932Y-41073158D01*
X72605000Y-40786260D01*
X72605000Y-40493740D01*
X72547932Y-40206842D01*
X72435990Y-39936589D01*
X72273475Y-39693368D01*
X72066632Y-39486525D01*
X71892240Y-39370000D01*
X72066632Y-39253475D01*
X72273475Y-39046632D01*
X72435990Y-38803411D01*
X72547932Y-38533158D01*
X72605000Y-38246260D01*
X72605000Y-37953740D01*
X72547932Y-37666842D01*
X72435990Y-37396589D01*
X72273475Y-37153368D01*
X72066632Y-36946525D01*
X71892240Y-36830000D01*
X72066632Y-36713475D01*
X72273475Y-36506632D01*
X72435990Y-36263411D01*
X72547932Y-35993158D01*
X72605000Y-35706260D01*
X72605000Y-35413740D01*
X72561210Y-35193592D01*
X73456377Y-34298425D01*
X73485374Y-34274628D01*
X73580347Y-34158903D01*
X73650919Y-34026874D01*
X73694376Y-33883613D01*
X73705373Y-33771960D01*
X73705373Y-33771951D01*
X73709049Y-33734628D01*
X73705373Y-33697305D01*
X73705373Y-22983693D01*
X73709049Y-22946370D01*
X73705373Y-22909047D01*
X73705373Y-22909038D01*
X73694376Y-22797385D01*
X73650919Y-22654124D01*
X73580347Y-22522095D01*
X73485374Y-22406370D01*
X73456376Y-22382572D01*
X72292987Y-21219184D01*
X72391641Y-21086920D01*
X72516825Y-20824099D01*
X72561476Y-20676890D01*
X72440155Y-20447000D01*
X71247000Y-20447000D01*
X71247000Y-20467000D01*
X70993000Y-20467000D01*
X70993000Y-20447000D01*
X70973000Y-20447000D01*
X70973000Y-20193000D01*
X70993000Y-20193000D01*
X70993000Y-18999186D01*
X71247000Y-18999186D01*
X71247000Y-20193000D01*
X72440155Y-20193000D01*
X72561476Y-19963110D01*
X72516825Y-19815901D01*
X72391641Y-19553080D01*
X72217588Y-19319731D01*
X72001355Y-19124822D01*
X71751252Y-18975843D01*
X71476891Y-18878519D01*
X71247000Y-18999186D01*
X70993000Y-18999186D01*
X70763109Y-18878519D01*
X70488748Y-18975843D01*
X70238645Y-19124822D01*
X70042498Y-19301626D01*
X70019502Y-19225820D01*
X69960537Y-19115506D01*
X69881185Y-19018815D01*
X69784494Y-18939463D01*
X69674180Y-18880498D01*
X69554482Y-18844188D01*
X69430000Y-18831928D01*
X67730000Y-18831928D01*
X67605518Y-18844188D01*
X67485820Y-18880498D01*
X67375506Y-18939463D01*
X67278815Y-19018815D01*
X67199463Y-19115506D01*
X67140498Y-19225820D01*
X67104188Y-19345518D01*
X67091928Y-19470000D01*
X67091928Y-20830000D01*
X54954802Y-20830000D01*
X54398071Y-20273270D01*
X54389278Y-20244284D01*
X54311831Y-20099392D01*
X54207606Y-19972394D01*
X54100000Y-19884084D01*
X54100000Y-19058178D01*
X54286632Y-18933475D01*
X54493475Y-18726632D01*
X54655990Y-18483411D01*
X54767932Y-18213158D01*
X54825000Y-17926260D01*
X54825000Y-17633740D01*
X54767932Y-17346842D01*
X54655990Y-17076589D01*
X54493475Y-16833368D01*
X54286632Y-16626525D01*
X54043411Y-16464010D01*
X53773158Y-16352068D01*
X53486260Y-16295000D01*
X53193740Y-16295000D01*
X52906842Y-16352068D01*
X52636589Y-16464010D01*
X52393368Y-16626525D01*
X52186525Y-16833368D01*
X52070000Y-17007760D01*
X51953475Y-16833368D01*
X51746632Y-16626525D01*
X51503411Y-16464010D01*
X51233158Y-16352068D01*
X50946260Y-16295000D01*
X50653740Y-16295000D01*
X50366842Y-16352068D01*
X50096589Y-16464010D01*
X49853368Y-16626525D01*
X49646525Y-16833368D01*
X49524805Y-17015534D01*
X49455178Y-16898645D01*
X49260269Y-16682412D01*
X49026920Y-16508359D01*
X48764099Y-16383175D01*
X48616890Y-16338524D01*
X48387000Y-16459845D01*
X48387000Y-17653000D01*
X48407000Y-17653000D01*
X48407000Y-17907000D01*
X48387000Y-17907000D01*
X48387000Y-19100155D01*
X48616890Y-19221476D01*
X48764099Y-19176825D01*
X49026920Y-19051641D01*
X49260269Y-18877588D01*
X49455178Y-18661355D01*
X49524805Y-18544466D01*
X49646525Y-18726632D01*
X49853368Y-18933475D01*
X50040001Y-19058179D01*
X50040000Y-19884083D01*
X49932394Y-19972394D01*
X49828169Y-20099392D01*
X49750722Y-20244284D01*
X49703031Y-20401500D01*
X49686928Y-20565000D01*
X49686928Y-20965000D01*
X49703031Y-21128500D01*
X49750722Y-21285716D01*
X49828169Y-21430608D01*
X49932394Y-21557606D01*
X49971866Y-21590000D01*
X49932394Y-21622394D01*
X49905635Y-21655000D01*
X48129802Y-21655000D01*
X45739801Y-19265000D01*
X45866260Y-19265000D01*
X46153158Y-19207932D01*
X46423411Y-19095990D01*
X46666632Y-18933475D01*
X46873475Y-18726632D01*
X46995195Y-18544466D01*
X47064822Y-18661355D01*
X47259731Y-18877588D01*
X47493080Y-19051641D01*
X47755901Y-19176825D01*
X47903110Y-19221476D01*
X48133000Y-19100155D01*
X48133000Y-17907000D01*
X48113000Y-17907000D01*
X48113000Y-17653000D01*
X48133000Y-17653000D01*
X48133000Y-16459845D01*
X47903110Y-16338524D01*
X47755901Y-16383175D01*
X47493080Y-16508359D01*
X47259731Y-16682412D01*
X47064822Y-16898645D01*
X46995195Y-17015534D01*
X46873475Y-16833368D01*
X46730000Y-16689893D01*
X46730000Y-16559604D01*
X46734886Y-16509999D01*
X46729946Y-16459845D01*
X46715385Y-16312006D01*
X46657632Y-16121620D01*
X46563847Y-15946160D01*
X46437633Y-15792367D01*
X46399094Y-15760739D01*
X45268355Y-14630000D01*
X78466620Y-14630000D01*
X80620001Y-16783382D01*
G04 #@! TA.AperFunction,Conductor*
D18*
G36*
X80620001Y-16783382D02*
G01*
X80620000Y-50526619D01*
X78466620Y-52680000D01*
X65291643Y-52680000D01*
X65299278Y-52665716D01*
X65346969Y-52508500D01*
X65363072Y-52345000D01*
X65363072Y-51795000D01*
X65346969Y-51631500D01*
X65299278Y-51474284D01*
X65221831Y-51329392D01*
X65117606Y-51202394D01*
X65085000Y-51175635D01*
X65085000Y-50302287D01*
X65094180Y-50299502D01*
X65204494Y-50240537D01*
X65301185Y-50161185D01*
X65380537Y-50064494D01*
X65439502Y-49954180D01*
X65456143Y-49899321D01*
X65464276Y-49894974D01*
X65580001Y-49800001D01*
X65603804Y-49770997D01*
X70753593Y-44621210D01*
X70973740Y-44665000D01*
X71266260Y-44665000D01*
X71553158Y-44607932D01*
X71823411Y-44495990D01*
X72066632Y-44333475D01*
X72273475Y-44126632D01*
X72435990Y-43883411D01*
X72547932Y-43613158D01*
X72605000Y-43326260D01*
X72605000Y-43033740D01*
X72547932Y-42746842D01*
X72435990Y-42476589D01*
X72273475Y-42233368D01*
X72066632Y-42026525D01*
X71892240Y-41910000D01*
X72066632Y-41793475D01*
X72273475Y-41586632D01*
X72435990Y-41343411D01*
X72547932Y-41073158D01*
X72605000Y-40786260D01*
X72605000Y-40493740D01*
X72547932Y-40206842D01*
X72435990Y-39936589D01*
X72273475Y-39693368D01*
X72066632Y-39486525D01*
X71892240Y-39370000D01*
X72066632Y-39253475D01*
X72273475Y-39046632D01*
X72435990Y-38803411D01*
X72547932Y-38533158D01*
X72605000Y-38246260D01*
X72605000Y-37953740D01*
X72547932Y-37666842D01*
X72435990Y-37396589D01*
X72273475Y-37153368D01*
X72066632Y-36946525D01*
X71892240Y-36830000D01*
X72066632Y-36713475D01*
X72273475Y-36506632D01*
X72435990Y-36263411D01*
X72547932Y-35993158D01*
X72605000Y-35706260D01*
X72605000Y-35413740D01*
X72561210Y-35193592D01*
X73456377Y-34298425D01*
X73485374Y-34274628D01*
X73580347Y-34158903D01*
X73650919Y-34026874D01*
X73694376Y-33883613D01*
X73705373Y-33771960D01*
X73705373Y-33771951D01*
X73709049Y-33734628D01*
X73705373Y-33697305D01*
X73705373Y-22983693D01*
X73709049Y-22946370D01*
X73705373Y-22909047D01*
X73705373Y-22909038D01*
X73694376Y-22797385D01*
X73650919Y-22654124D01*
X73580347Y-22522095D01*
X73485374Y-22406370D01*
X73456376Y-22382572D01*
X72292987Y-21219184D01*
X72391641Y-21086920D01*
X72516825Y-20824099D01*
X72561476Y-20676890D01*
X72440155Y-20447000D01*
X71247000Y-20447000D01*
X71247000Y-20467000D01*
X70993000Y-20467000D01*
X70993000Y-20447000D01*
X70973000Y-20447000D01*
X70973000Y-20193000D01*
X70993000Y-20193000D01*
X70993000Y-18999186D01*
X71247000Y-18999186D01*
X71247000Y-20193000D01*
X72440155Y-20193000D01*
X72561476Y-19963110D01*
X72516825Y-19815901D01*
X72391641Y-19553080D01*
X72217588Y-19319731D01*
X72001355Y-19124822D01*
X71751252Y-18975843D01*
X71476891Y-18878519D01*
X71247000Y-18999186D01*
X70993000Y-18999186D01*
X70763109Y-18878519D01*
X70488748Y-18975843D01*
X70238645Y-19124822D01*
X70042498Y-19301626D01*
X70019502Y-19225820D01*
X69960537Y-19115506D01*
X69881185Y-19018815D01*
X69784494Y-18939463D01*
X69674180Y-18880498D01*
X69554482Y-18844188D01*
X69430000Y-18831928D01*
X67730000Y-18831928D01*
X67605518Y-18844188D01*
X67485820Y-18880498D01*
X67375506Y-18939463D01*
X67278815Y-19018815D01*
X67199463Y-19115506D01*
X67140498Y-19225820D01*
X67104188Y-19345518D01*
X67091928Y-19470000D01*
X67091928Y-20830000D01*
X54954802Y-20830000D01*
X54398071Y-20273270D01*
X54389278Y-20244284D01*
X54311831Y-20099392D01*
X54207606Y-19972394D01*
X54100000Y-19884084D01*
X54100000Y-19058178D01*
X54286632Y-18933475D01*
X54493475Y-18726632D01*
X54655990Y-18483411D01*
X54767932Y-18213158D01*
X54825000Y-17926260D01*
X54825000Y-17633740D01*
X54767932Y-17346842D01*
X54655990Y-17076589D01*
X54493475Y-16833368D01*
X54286632Y-16626525D01*
X54043411Y-16464010D01*
X53773158Y-16352068D01*
X53486260Y-16295000D01*
X53193740Y-16295000D01*
X52906842Y-16352068D01*
X52636589Y-16464010D01*
X52393368Y-16626525D01*
X52186525Y-16833368D01*
X52070000Y-17007760D01*
X51953475Y-16833368D01*
X51746632Y-16626525D01*
X51503411Y-16464010D01*
X51233158Y-16352068D01*
X50946260Y-16295000D01*
X50653740Y-16295000D01*
X50366842Y-16352068D01*
X50096589Y-16464010D01*
X49853368Y-16626525D01*
X49646525Y-16833368D01*
X49524805Y-17015534D01*
X49455178Y-16898645D01*
X49260269Y-16682412D01*
X49026920Y-16508359D01*
X48764099Y-16383175D01*
X48616890Y-16338524D01*
X48387000Y-16459845D01*
X48387000Y-17653000D01*
X48407000Y-17653000D01*
X48407000Y-17907000D01*
X48387000Y-17907000D01*
X48387000Y-19100155D01*
X48616890Y-19221476D01*
X48764099Y-19176825D01*
X49026920Y-19051641D01*
X49260269Y-18877588D01*
X49455178Y-18661355D01*
X49524805Y-18544466D01*
X49646525Y-18726632D01*
X49853368Y-18933475D01*
X50040001Y-19058179D01*
X50040000Y-19884083D01*
X49932394Y-19972394D01*
X49828169Y-20099392D01*
X49750722Y-20244284D01*
X49703031Y-20401500D01*
X49686928Y-20565000D01*
X49686928Y-20965000D01*
X49703031Y-21128500D01*
X49750722Y-21285716D01*
X49828169Y-21430608D01*
X49932394Y-21557606D01*
X49971866Y-21590000D01*
X49932394Y-21622394D01*
X49905635Y-21655000D01*
X48129802Y-21655000D01*
X45739801Y-19265000D01*
X45866260Y-19265000D01*
X46153158Y-19207932D01*
X46423411Y-19095990D01*
X46666632Y-18933475D01*
X46873475Y-18726632D01*
X46995195Y-18544466D01*
X47064822Y-18661355D01*
X47259731Y-18877588D01*
X47493080Y-19051641D01*
X47755901Y-19176825D01*
X47903110Y-19221476D01*
X48133000Y-19100155D01*
X48133000Y-17907000D01*
X48113000Y-17907000D01*
X48113000Y-17653000D01*
X48133000Y-17653000D01*
X48133000Y-16459845D01*
X47903110Y-16338524D01*
X47755901Y-16383175D01*
X47493080Y-16508359D01*
X47259731Y-16682412D01*
X47064822Y-16898645D01*
X46995195Y-17015534D01*
X46873475Y-16833368D01*
X46730000Y-16689893D01*
X46730000Y-16559604D01*
X46734886Y-16509999D01*
X46729946Y-16459845D01*
X46715385Y-16312006D01*
X46657632Y-16121620D01*
X46563847Y-15946160D01*
X46437633Y-15792367D01*
X46399094Y-15760739D01*
X45268355Y-14630000D01*
X78466620Y-14630000D01*
X80620001Y-16783382D01*
G37*
G04 #@! TD.AperFunction*
D17*
X27521645Y-16770000D02*
X24179604Y-16770000D01*
X24129999Y-16765114D01*
X24080394Y-16770000D01*
X24080392Y-16770000D01*
X23932006Y-16784615D01*
X23741620Y-16842368D01*
X23566160Y-16936153D01*
X23412367Y-17062367D01*
X23380739Y-17100906D01*
X22180906Y-18300739D01*
X22142367Y-18332367D01*
X22016153Y-18486160D01*
X21939270Y-18630000D01*
X21922368Y-18661621D01*
X21864615Y-18852006D01*
X21845114Y-19050000D01*
X21850000Y-19099608D01*
X21850001Y-39320383D01*
X21850000Y-39320393D01*
X21850001Y-44031643D01*
X20376645Y-45505000D01*
X20173740Y-45505000D01*
X19886842Y-45562068D01*
X19616589Y-45674010D01*
X19373368Y-45836525D01*
X19241513Y-45968380D01*
X19219502Y-45895820D01*
X19160537Y-45785506D01*
X19081185Y-45688815D01*
X18984494Y-45609463D01*
X18874180Y-45550498D01*
X18754482Y-45514188D01*
X18630000Y-45501928D01*
X18065750Y-45505000D01*
X17907000Y-45663750D01*
X17907000Y-46863000D01*
X17927000Y-46863000D01*
X17927000Y-47117000D01*
X17907000Y-47117000D01*
X17907000Y-48316250D01*
X18065750Y-48475000D01*
X18630000Y-48478072D01*
X18754482Y-48465812D01*
X18874180Y-48429502D01*
X18984494Y-48370537D01*
X19081185Y-48291185D01*
X19160537Y-48194494D01*
X19219502Y-48084180D01*
X19241513Y-48011620D01*
X19373368Y-48143475D01*
X19616589Y-48305990D01*
X19886842Y-48417932D01*
X20173740Y-48475000D01*
X20376645Y-48475000D01*
X22110744Y-50209100D01*
X22142367Y-50247633D01*
X22296160Y-50373847D01*
X22471620Y-50467632D01*
X22662006Y-50525385D01*
X22810392Y-50540000D01*
X22810394Y-50540000D01*
X22859999Y-50544886D01*
X22909604Y-50540000D01*
X61665001Y-50540000D01*
X61665000Y-51592043D01*
X61653031Y-51631500D01*
X61636928Y-51795000D01*
X61636928Y-52345000D01*
X61653031Y-52508500D01*
X61700722Y-52665716D01*
X61708357Y-52680000D01*
X16783381Y-52680000D01*
X14630000Y-50526620D01*
X14630000Y-47840000D01*
X16291928Y-47840000D01*
X16304188Y-47964482D01*
X16340498Y-48084180D01*
X16399463Y-48194494D01*
X16478815Y-48291185D01*
X16575506Y-48370537D01*
X16685820Y-48429502D01*
X16805518Y-48465812D01*
X16930000Y-48478072D01*
X17494250Y-48475000D01*
X17653000Y-48316250D01*
X17653000Y-47117000D01*
X16453750Y-47117000D01*
X16295000Y-47275750D01*
X16291928Y-47840000D01*
X14630000Y-47840000D01*
X14630000Y-46140000D01*
X16291928Y-46140000D01*
X16295000Y-46704250D01*
X16453750Y-46863000D01*
X17653000Y-46863000D01*
X17653000Y-45663750D01*
X17494250Y-45505000D01*
X16930000Y-45501928D01*
X16805518Y-45514188D01*
X16685820Y-45550498D01*
X16575506Y-45609463D01*
X16478815Y-45688815D01*
X16399463Y-45785506D01*
X16340498Y-45895820D01*
X16304188Y-46015518D01*
X16291928Y-46140000D01*
X14630000Y-46140000D01*
X14630000Y-16783380D01*
X16783381Y-14630000D01*
X29661644Y-14630000D01*
X27521645Y-16770000D01*
G04 #@! TA.AperFunction,Conductor*
D18*
G36*
X27521645Y-16770000D02*
G01*
X24179604Y-16770000D01*
X24129999Y-16765114D01*
X24080394Y-16770000D01*
X24080392Y-16770000D01*
X23932006Y-16784615D01*
X23741620Y-16842368D01*
X23566160Y-16936153D01*
X23412367Y-17062367D01*
X23380739Y-17100906D01*
X22180906Y-18300739D01*
X22142367Y-18332367D01*
X22016153Y-18486160D01*
X21939270Y-18630000D01*
X21922368Y-18661621D01*
X21864615Y-18852006D01*
X21845114Y-19050000D01*
X21850000Y-19099608D01*
X21850001Y-39320383D01*
X21850000Y-39320393D01*
X21850001Y-44031643D01*
X20376645Y-45505000D01*
X20173740Y-45505000D01*
X19886842Y-45562068D01*
X19616589Y-45674010D01*
X19373368Y-45836525D01*
X19241513Y-45968380D01*
X19219502Y-45895820D01*
X19160537Y-45785506D01*
X19081185Y-45688815D01*
X18984494Y-45609463D01*
X18874180Y-45550498D01*
X18754482Y-45514188D01*
X18630000Y-45501928D01*
X18065750Y-45505000D01*
X17907000Y-45663750D01*
X17907000Y-46863000D01*
X17927000Y-46863000D01*
X17927000Y-47117000D01*
X17907000Y-47117000D01*
X17907000Y-48316250D01*
X18065750Y-48475000D01*
X18630000Y-48478072D01*
X18754482Y-48465812D01*
X18874180Y-48429502D01*
X18984494Y-48370537D01*
X19081185Y-48291185D01*
X19160537Y-48194494D01*
X19219502Y-48084180D01*
X19241513Y-48011620D01*
X19373368Y-48143475D01*
X19616589Y-48305990D01*
X19886842Y-48417932D01*
X20173740Y-48475000D01*
X20376645Y-48475000D01*
X22110744Y-50209100D01*
X22142367Y-50247633D01*
X22296160Y-50373847D01*
X22471620Y-50467632D01*
X22662006Y-50525385D01*
X22810392Y-50540000D01*
X22810394Y-50540000D01*
X22859999Y-50544886D01*
X22909604Y-50540000D01*
X61665001Y-50540000D01*
X61665000Y-51592043D01*
X61653031Y-51631500D01*
X61636928Y-51795000D01*
X61636928Y-52345000D01*
X61653031Y-52508500D01*
X61700722Y-52665716D01*
X61708357Y-52680000D01*
X16783381Y-52680000D01*
X14630000Y-50526620D01*
X14630000Y-47840000D01*
X16291928Y-47840000D01*
X16304188Y-47964482D01*
X16340498Y-48084180D01*
X16399463Y-48194494D01*
X16478815Y-48291185D01*
X16575506Y-48370537D01*
X16685820Y-48429502D01*
X16805518Y-48465812D01*
X16930000Y-48478072D01*
X17494250Y-48475000D01*
X17653000Y-48316250D01*
X17653000Y-47117000D01*
X16453750Y-47117000D01*
X16295000Y-47275750D01*
X16291928Y-47840000D01*
X14630000Y-47840000D01*
X14630000Y-46140000D01*
X16291928Y-46140000D01*
X16295000Y-46704250D01*
X16453750Y-46863000D01*
X17653000Y-46863000D01*
X17653000Y-45663750D01*
X17494250Y-45505000D01*
X16930000Y-45501928D01*
X16805518Y-45514188D01*
X16685820Y-45550498D01*
X16575506Y-45609463D01*
X16478815Y-45688815D01*
X16399463Y-45785506D01*
X16340498Y-45895820D01*
X16304188Y-46015518D01*
X16291928Y-46140000D01*
X14630000Y-46140000D01*
X14630000Y-16783380D01*
X16783381Y-14630000D01*
X29661644Y-14630000D01*
X27521645Y-16770000D01*
G37*
G04 #@! TD.AperFunction*
D17*
X60547394Y-45317606D02*
X60674392Y-45421831D01*
X60819284Y-45499278D01*
X60976500Y-45546969D01*
X61140000Y-45563072D01*
X61201494Y-45563072D01*
X62461928Y-46823507D01*
X62461928Y-47710000D01*
X62474188Y-47834482D01*
X62510498Y-47954180D01*
X62569463Y-48064494D01*
X62648815Y-48161185D01*
X62661905Y-48171928D01*
X62150000Y-48171928D01*
X62025518Y-48184188D01*
X61905820Y-48220498D01*
X61795506Y-48279463D01*
X61698815Y-48358815D01*
X61619463Y-48455506D01*
X61584990Y-48520000D01*
X23278356Y-48520000D01*
X23195678Y-48437322D01*
X23293158Y-48417932D01*
X23563411Y-48305990D01*
X23806632Y-48143475D01*
X24013475Y-47936632D01*
X24130000Y-47762240D01*
X24246525Y-47936632D01*
X24453368Y-48143475D01*
X24696589Y-48305990D01*
X24966842Y-48417932D01*
X25253740Y-48475000D01*
X25546260Y-48475000D01*
X25833158Y-48417932D01*
X26103411Y-48305990D01*
X26346632Y-48143475D01*
X26553475Y-47936632D01*
X26670000Y-47762240D01*
X26786525Y-47936632D01*
X26993368Y-48143475D01*
X27236589Y-48305990D01*
X27506842Y-48417932D01*
X27793740Y-48475000D01*
X28086260Y-48475000D01*
X28373158Y-48417932D01*
X28643411Y-48305990D01*
X28886632Y-48143475D01*
X29093475Y-47936632D01*
X29210000Y-47762240D01*
X29326525Y-47936632D01*
X29533368Y-48143475D01*
X29776589Y-48305990D01*
X30046842Y-48417932D01*
X30333740Y-48475000D01*
X30626260Y-48475000D01*
X30913158Y-48417932D01*
X31183411Y-48305990D01*
X31426632Y-48143475D01*
X31633475Y-47936632D01*
X31750000Y-47762240D01*
X31866525Y-47936632D01*
X32073368Y-48143475D01*
X32316589Y-48305990D01*
X32586842Y-48417932D01*
X32873740Y-48475000D01*
X33166260Y-48475000D01*
X33453158Y-48417932D01*
X33723411Y-48305990D01*
X33966632Y-48143475D01*
X34173475Y-47936632D01*
X34290000Y-47762240D01*
X34406525Y-47936632D01*
X34613368Y-48143475D01*
X34856589Y-48305990D01*
X35126842Y-48417932D01*
X35413740Y-48475000D01*
X35706260Y-48475000D01*
X35993158Y-48417932D01*
X36263411Y-48305990D01*
X36506632Y-48143475D01*
X36713475Y-47936632D01*
X36830000Y-47762240D01*
X36946525Y-47936632D01*
X37153368Y-48143475D01*
X37396589Y-48305990D01*
X37666842Y-48417932D01*
X37953740Y-48475000D01*
X38246260Y-48475000D01*
X38533158Y-48417932D01*
X38803411Y-48305990D01*
X39046632Y-48143475D01*
X39253475Y-47936632D01*
X39370000Y-47762240D01*
X39486525Y-47936632D01*
X39693368Y-48143475D01*
X39936589Y-48305990D01*
X40206842Y-48417932D01*
X40493740Y-48475000D01*
X40786260Y-48475000D01*
X41073158Y-48417932D01*
X41343411Y-48305990D01*
X41586632Y-48143475D01*
X41793475Y-47936632D01*
X41910000Y-47762240D01*
X42026525Y-47936632D01*
X42233368Y-48143475D01*
X42476589Y-48305990D01*
X42746842Y-48417932D01*
X43033740Y-48475000D01*
X43326260Y-48475000D01*
X43613158Y-48417932D01*
X43883411Y-48305990D01*
X44126632Y-48143475D01*
X44333475Y-47936632D01*
X44450000Y-47762240D01*
X44566525Y-47936632D01*
X44773368Y-48143475D01*
X45016589Y-48305990D01*
X45286842Y-48417932D01*
X45573740Y-48475000D01*
X45866260Y-48475000D01*
X46153158Y-48417932D01*
X46423411Y-48305990D01*
X46666632Y-48143475D01*
X46873475Y-47936632D01*
X46990000Y-47762240D01*
X47106525Y-47936632D01*
X47313368Y-48143475D01*
X47556589Y-48305990D01*
X47826842Y-48417932D01*
X48113740Y-48475000D01*
X48406260Y-48475000D01*
X48693158Y-48417932D01*
X48963411Y-48305990D01*
X49206632Y-48143475D01*
X49413475Y-47936632D01*
X49530000Y-47762240D01*
X49646525Y-47936632D01*
X49853368Y-48143475D01*
X50096589Y-48305990D01*
X50366842Y-48417932D01*
X50653740Y-48475000D01*
X50946260Y-48475000D01*
X51233158Y-48417932D01*
X51503411Y-48305990D01*
X51746632Y-48143475D01*
X51953475Y-47936632D01*
X52070000Y-47762240D01*
X52186525Y-47936632D01*
X52393368Y-48143475D01*
X52636589Y-48305990D01*
X52906842Y-48417932D01*
X53193740Y-48475000D01*
X53486260Y-48475000D01*
X53773158Y-48417932D01*
X54043411Y-48305990D01*
X54286632Y-48143475D01*
X54493475Y-47936632D01*
X54615195Y-47754466D01*
X54684822Y-47871355D01*
X54879731Y-48087588D01*
X55113080Y-48261641D01*
X55375901Y-48386825D01*
X55523110Y-48431476D01*
X55753000Y-48310155D01*
X55753000Y-47117000D01*
X56007000Y-47117000D01*
X56007000Y-48310155D01*
X56236890Y-48431476D01*
X56384099Y-48386825D01*
X56646920Y-48261641D01*
X56880269Y-48087588D01*
X57075178Y-47871355D01*
X57224157Y-47621252D01*
X57321481Y-47346891D01*
X57200814Y-47117000D01*
X56007000Y-47117000D01*
X55753000Y-47117000D01*
X55733000Y-47117000D01*
X55733000Y-46863000D01*
X55753000Y-46863000D01*
X55753000Y-46843000D01*
X56007000Y-46843000D01*
X56007000Y-46863000D01*
X57200814Y-46863000D01*
X57321481Y-46633109D01*
X57224157Y-46358748D01*
X57075178Y-46108645D01*
X56880269Y-45892412D01*
X56646920Y-45718359D01*
X56384099Y-45593175D01*
X56236890Y-45548524D01*
X56007002Y-45669844D01*
X56007002Y-45574577D01*
X56246579Y-45335000D01*
X58918589Y-45335000D01*
X59024392Y-45421831D01*
X59169284Y-45499278D01*
X59326500Y-45546969D01*
X59490000Y-45563072D01*
X59890000Y-45563072D01*
X60053500Y-45546969D01*
X60210716Y-45499278D01*
X60355608Y-45421831D01*
X60482606Y-45317606D01*
X60515000Y-45278134D01*
X60547394Y-45317606D01*
G04 #@! TA.AperFunction,Conductor*
D18*
G36*
X60547394Y-45317606D02*
G01*
X60674392Y-45421831D01*
X60819284Y-45499278D01*
X60976500Y-45546969D01*
X61140000Y-45563072D01*
X61201494Y-45563072D01*
X62461928Y-46823507D01*
X62461928Y-47710000D01*
X62474188Y-47834482D01*
X62510498Y-47954180D01*
X62569463Y-48064494D01*
X62648815Y-48161185D01*
X62661905Y-48171928D01*
X62150000Y-48171928D01*
X62025518Y-48184188D01*
X61905820Y-48220498D01*
X61795506Y-48279463D01*
X61698815Y-48358815D01*
X61619463Y-48455506D01*
X61584990Y-48520000D01*
X23278356Y-48520000D01*
X23195678Y-48437322D01*
X23293158Y-48417932D01*
X23563411Y-48305990D01*
X23806632Y-48143475D01*
X24013475Y-47936632D01*
X24130000Y-47762240D01*
X24246525Y-47936632D01*
X24453368Y-48143475D01*
X24696589Y-48305990D01*
X24966842Y-48417932D01*
X25253740Y-48475000D01*
X25546260Y-48475000D01*
X25833158Y-48417932D01*
X26103411Y-48305990D01*
X26346632Y-48143475D01*
X26553475Y-47936632D01*
X26670000Y-47762240D01*
X26786525Y-47936632D01*
X26993368Y-48143475D01*
X27236589Y-48305990D01*
X27506842Y-48417932D01*
X27793740Y-48475000D01*
X28086260Y-48475000D01*
X28373158Y-48417932D01*
X28643411Y-48305990D01*
X28886632Y-48143475D01*
X29093475Y-47936632D01*
X29210000Y-47762240D01*
X29326525Y-47936632D01*
X29533368Y-48143475D01*
X29776589Y-48305990D01*
X30046842Y-48417932D01*
X30333740Y-48475000D01*
X30626260Y-48475000D01*
X30913158Y-48417932D01*
X31183411Y-48305990D01*
X31426632Y-48143475D01*
X31633475Y-47936632D01*
X31750000Y-47762240D01*
X31866525Y-47936632D01*
X32073368Y-48143475D01*
X32316589Y-48305990D01*
X32586842Y-48417932D01*
X32873740Y-48475000D01*
X33166260Y-48475000D01*
X33453158Y-48417932D01*
X33723411Y-48305990D01*
X33966632Y-48143475D01*
X34173475Y-47936632D01*
X34290000Y-47762240D01*
X34406525Y-47936632D01*
X34613368Y-48143475D01*
X34856589Y-48305990D01*
X35126842Y-48417932D01*
X35413740Y-48475000D01*
X35706260Y-48475000D01*
X35993158Y-48417932D01*
X36263411Y-48305990D01*
X36506632Y-48143475D01*
X36713475Y-47936632D01*
X36830000Y-47762240D01*
X36946525Y-47936632D01*
X37153368Y-48143475D01*
X37396589Y-48305990D01*
X37666842Y-48417932D01*
X37953740Y-48475000D01*
X38246260Y-48475000D01*
X38533158Y-48417932D01*
X38803411Y-48305990D01*
X39046632Y-48143475D01*
X39253475Y-47936632D01*
X39370000Y-47762240D01*
X39486525Y-47936632D01*
X39693368Y-48143475D01*
X39936589Y-48305990D01*
X40206842Y-48417932D01*
X40493740Y-48475000D01*
X40786260Y-48475000D01*
X41073158Y-48417932D01*
X41343411Y-48305990D01*
X41586632Y-48143475D01*
X41793475Y-47936632D01*
X41910000Y-47762240D01*
X42026525Y-47936632D01*
X42233368Y-48143475D01*
X42476589Y-48305990D01*
X42746842Y-48417932D01*
X43033740Y-48475000D01*
X43326260Y-48475000D01*
X43613158Y-48417932D01*
X43883411Y-48305990D01*
X44126632Y-48143475D01*
X44333475Y-47936632D01*
X44450000Y-47762240D01*
X44566525Y-47936632D01*
X44773368Y-48143475D01*
X45016589Y-48305990D01*
X45286842Y-48417932D01*
X45573740Y-48475000D01*
X45866260Y-48475000D01*
X46153158Y-48417932D01*
X46423411Y-48305990D01*
X46666632Y-48143475D01*
X46873475Y-47936632D01*
X46990000Y-47762240D01*
X47106525Y-47936632D01*
X47313368Y-48143475D01*
X47556589Y-48305990D01*
X47826842Y-48417932D01*
X48113740Y-48475000D01*
X48406260Y-48475000D01*
X48693158Y-48417932D01*
X48963411Y-48305990D01*
X49206632Y-48143475D01*
X49413475Y-47936632D01*
X49530000Y-47762240D01*
X49646525Y-47936632D01*
X49853368Y-48143475D01*
X50096589Y-48305990D01*
X50366842Y-48417932D01*
X50653740Y-48475000D01*
X50946260Y-48475000D01*
X51233158Y-48417932D01*
X51503411Y-48305990D01*
X51746632Y-48143475D01*
X51953475Y-47936632D01*
X52070000Y-47762240D01*
X52186525Y-47936632D01*
X52393368Y-48143475D01*
X52636589Y-48305990D01*
X52906842Y-48417932D01*
X53193740Y-48475000D01*
X53486260Y-48475000D01*
X53773158Y-48417932D01*
X54043411Y-48305990D01*
X54286632Y-48143475D01*
X54493475Y-47936632D01*
X54615195Y-47754466D01*
X54684822Y-47871355D01*
X54879731Y-48087588D01*
X55113080Y-48261641D01*
X55375901Y-48386825D01*
X55523110Y-48431476D01*
X55753000Y-48310155D01*
X55753000Y-47117000D01*
X56007000Y-47117000D01*
X56007000Y-48310155D01*
X56236890Y-48431476D01*
X56384099Y-48386825D01*
X56646920Y-48261641D01*
X56880269Y-48087588D01*
X57075178Y-47871355D01*
X57224157Y-47621252D01*
X57321481Y-47346891D01*
X57200814Y-47117000D01*
X56007000Y-47117000D01*
X55753000Y-47117000D01*
X55733000Y-47117000D01*
X55733000Y-46863000D01*
X55753000Y-46863000D01*
X55753000Y-46843000D01*
X56007000Y-46843000D01*
X56007000Y-46863000D01*
X57200814Y-46863000D01*
X57321481Y-46633109D01*
X57224157Y-46358748D01*
X57075178Y-46108645D01*
X56880269Y-45892412D01*
X56646920Y-45718359D01*
X56384099Y-45593175D01*
X56236890Y-45548524D01*
X56007002Y-45669844D01*
X56007002Y-45574577D01*
X56246579Y-45335000D01*
X58918589Y-45335000D01*
X59024392Y-45421831D01*
X59169284Y-45499278D01*
X59326500Y-45546969D01*
X59490000Y-45563072D01*
X59890000Y-45563072D01*
X60053500Y-45546969D01*
X60210716Y-45499278D01*
X60355608Y-45421831D01*
X60482606Y-45317606D01*
X60515000Y-45278134D01*
X60547394Y-45317606D01*
G37*
G04 #@! TD.AperFunction*
D17*
X67426525Y-44126632D02*
X67633368Y-44333475D01*
X67876589Y-44495990D01*
X68146842Y-44607932D01*
X68433740Y-44665000D01*
X68560198Y-44665000D01*
X65025527Y-48199672D01*
X64974482Y-48184188D01*
X64850000Y-48171928D01*
X64338095Y-48171928D01*
X64351185Y-48161185D01*
X64430537Y-48064494D01*
X64489502Y-47954180D01*
X64525812Y-47834482D01*
X64538072Y-47710000D01*
X64538072Y-46810000D01*
X64525812Y-46685518D01*
X64489502Y-46565820D01*
X64430537Y-46455506D01*
X64351185Y-46358815D01*
X64347778Y-46356019D01*
X64321589Y-46269687D01*
X64239411Y-46115941D01*
X64187238Y-46052368D01*
X64156532Y-46014953D01*
X64156530Y-46014951D01*
X64128817Y-45981183D01*
X64095049Y-45953470D01*
X62378072Y-44236494D01*
X62378072Y-44175000D01*
X62361969Y-44011500D01*
X62340280Y-43940000D01*
X67301822Y-43940000D01*
X67426525Y-44126632D01*
G04 #@! TA.AperFunction,Conductor*
D18*
G36*
X67426525Y-44126632D02*
G01*
X67633368Y-44333475D01*
X67876589Y-44495990D01*
X68146842Y-44607932D01*
X68433740Y-44665000D01*
X68560198Y-44665000D01*
X65025527Y-48199672D01*
X64974482Y-48184188D01*
X64850000Y-48171928D01*
X64338095Y-48171928D01*
X64351185Y-48161185D01*
X64430537Y-48064494D01*
X64489502Y-47954180D01*
X64525812Y-47834482D01*
X64538072Y-47710000D01*
X64538072Y-46810000D01*
X64525812Y-46685518D01*
X64489502Y-46565820D01*
X64430537Y-46455506D01*
X64351185Y-46358815D01*
X64347778Y-46356019D01*
X64321589Y-46269687D01*
X64239411Y-46115941D01*
X64187238Y-46052368D01*
X64156532Y-46014953D01*
X64156530Y-46014951D01*
X64128817Y-45981183D01*
X64095049Y-45953470D01*
X62378072Y-44236494D01*
X62378072Y-44175000D01*
X62361969Y-44011500D01*
X62340280Y-43940000D01*
X67301822Y-43940000D01*
X67426525Y-44126632D01*
G37*
G04 #@! TD.AperFunction*
D17*
X47251201Y-22926003D02*
X47274999Y-22955001D01*
X47390724Y-23049974D01*
X47522753Y-23120546D01*
X47666014Y-23164003D01*
X47777667Y-23175000D01*
X47777677Y-23175000D01*
X47815000Y-23178676D01*
X47852323Y-23175000D01*
X49905635Y-23175000D01*
X49932394Y-23207606D01*
X50059392Y-23311831D01*
X50204284Y-23389278D01*
X50361500Y-23436969D01*
X50525000Y-23453072D01*
X51075000Y-23453072D01*
X51238500Y-23436969D01*
X51395716Y-23389278D01*
X51540608Y-23311831D01*
X51667606Y-23207606D01*
X51694365Y-23175000D01*
X52445635Y-23175000D01*
X52472394Y-23207606D01*
X52599392Y-23311831D01*
X52744284Y-23389278D01*
X52901500Y-23436969D01*
X53065000Y-23453072D01*
X53615000Y-23453072D01*
X53778500Y-23436969D01*
X53935716Y-23389278D01*
X54080608Y-23311831D01*
X54207606Y-23207606D01*
X54238112Y-23170435D01*
X55708166Y-24640490D01*
X55731965Y-24669489D01*
X55847690Y-24764462D01*
X55979719Y-24835034D01*
X56122980Y-24878491D01*
X56234633Y-24889488D01*
X56234641Y-24889488D01*
X56271966Y-24893164D01*
X56309291Y-24889488D01*
X67184109Y-24889488D01*
X67152068Y-24966842D01*
X67095000Y-25253740D01*
X67095000Y-25546260D01*
X67148456Y-25815001D01*
X45852332Y-25815001D01*
X45814999Y-25811324D01*
X45777666Y-25815001D01*
X45666013Y-25825998D01*
X45522752Y-25869455D01*
X45390723Y-25940027D01*
X45274998Y-26035000D01*
X45251200Y-26063998D01*
X35365261Y-35949938D01*
X35339278Y-35864284D01*
X35261831Y-35719392D01*
X35178137Y-35617410D01*
X35216185Y-35586185D01*
X35295537Y-35489494D01*
X35354502Y-35379180D01*
X35390812Y-35259482D01*
X35403072Y-35135000D01*
X35400000Y-35020750D01*
X35241250Y-34862000D01*
X34417000Y-34862000D01*
X34417000Y-34882000D01*
X34163000Y-34882000D01*
X34163000Y-34862000D01*
X33338750Y-34862000D01*
X33180000Y-35020750D01*
X33176928Y-35135000D01*
X33189188Y-35259482D01*
X33225498Y-35379180D01*
X33284463Y-35489494D01*
X33363815Y-35586185D01*
X33401863Y-35617410D01*
X33395635Y-35625000D01*
X32644365Y-35625000D01*
X32617606Y-35592394D01*
X32578134Y-35560000D01*
X32617606Y-35527606D01*
X32721831Y-35400608D01*
X32799278Y-35255716D01*
X32846969Y-35098500D01*
X32863072Y-34935000D01*
X32863072Y-34535000D01*
X32846969Y-34371500D01*
X32835897Y-34335000D01*
X33176928Y-34335000D01*
X33180000Y-34449250D01*
X33338750Y-34608000D01*
X34163000Y-34608000D01*
X34163000Y-33858750D01*
X34417000Y-33858750D01*
X34417000Y-34608000D01*
X35241250Y-34608000D01*
X35400000Y-34449250D01*
X35403072Y-34335000D01*
X35390812Y-34210518D01*
X35354502Y-34090820D01*
X35295537Y-33980506D01*
X35216185Y-33883815D01*
X35119494Y-33804463D01*
X35009180Y-33745498D01*
X34889482Y-33709188D01*
X34765000Y-33696928D01*
X34575750Y-33700000D01*
X34417000Y-33858750D01*
X34163000Y-33858750D01*
X34004250Y-33700000D01*
X33815000Y-33696928D01*
X33690518Y-33709188D01*
X33570820Y-33745498D01*
X33460506Y-33804463D01*
X33363815Y-33883815D01*
X33284463Y-33980506D01*
X33225498Y-34090820D01*
X33189188Y-34210518D01*
X33176928Y-34335000D01*
X32835897Y-34335000D01*
X32799278Y-34214284D01*
X32721831Y-34069392D01*
X32617606Y-33942394D01*
X32490608Y-33838169D01*
X32345716Y-33760722D01*
X32188500Y-33713031D01*
X32025000Y-33696928D01*
X31475000Y-33696928D01*
X31311500Y-33713031D01*
X31154284Y-33760722D01*
X31009392Y-33838169D01*
X30882394Y-33942394D01*
X30778169Y-34069392D01*
X30700722Y-34214284D01*
X30653031Y-34371500D01*
X30636928Y-34535000D01*
X30636928Y-34773270D01*
X29333207Y-36076992D01*
X29367932Y-35993158D01*
X29425000Y-35706260D01*
X29425000Y-35413740D01*
X29367932Y-35126842D01*
X29255990Y-34856589D01*
X29093475Y-34613368D01*
X28886632Y-34406525D01*
X28712240Y-34290000D01*
X28886632Y-34173475D01*
X29093475Y-33966632D01*
X29255990Y-33723411D01*
X29367932Y-33453158D01*
X29425000Y-33166260D01*
X29425000Y-32873740D01*
X29367932Y-32586842D01*
X29255990Y-32316589D01*
X29093475Y-32073368D01*
X28886632Y-31866525D01*
X28712240Y-31750000D01*
X28886632Y-31633475D01*
X29093475Y-31426632D01*
X29255990Y-31183411D01*
X29367932Y-30913158D01*
X29425000Y-30626260D01*
X29425000Y-30333740D01*
X29367932Y-30046842D01*
X29255990Y-29776589D01*
X29093475Y-29533368D01*
X28886632Y-29326525D01*
X28712240Y-29210000D01*
X28886632Y-29093475D01*
X29093475Y-28886632D01*
X29255990Y-28643411D01*
X29367932Y-28373158D01*
X29425000Y-28086260D01*
X29425000Y-27793740D01*
X29367932Y-27506842D01*
X29255990Y-27236589D01*
X29093475Y-26993368D01*
X28886632Y-26786525D01*
X28712240Y-26670000D01*
X28886632Y-26553475D01*
X29093475Y-26346632D01*
X29255990Y-26103411D01*
X29367932Y-25833158D01*
X29425000Y-25546260D01*
X29425000Y-25253740D01*
X29367932Y-24966842D01*
X29255990Y-24696589D01*
X29093475Y-24453368D01*
X28886632Y-24246525D01*
X28704466Y-24124805D01*
X28821355Y-24055178D01*
X29037588Y-23860269D01*
X29211641Y-23626920D01*
X29336825Y-23364099D01*
X29381476Y-23216890D01*
X29260155Y-22987000D01*
X28067000Y-22987000D01*
X28067000Y-23007000D01*
X27813000Y-23007000D01*
X27813000Y-22987000D01*
X27793000Y-22987000D01*
X27793000Y-22733000D01*
X27813000Y-22733000D01*
X27813000Y-22713000D01*
X28067000Y-22713000D01*
X28067000Y-22733000D01*
X29260155Y-22733000D01*
X29381476Y-22503110D01*
X29336825Y-22355901D01*
X29288765Y-22255001D01*
X39427677Y-22255001D01*
X39464999Y-22258677D01*
X39502321Y-22255001D01*
X39502332Y-22255001D01*
X39613985Y-22244004D01*
X39757246Y-22200547D01*
X39889275Y-22129975D01*
X40005000Y-22035002D01*
X40028803Y-22005998D01*
X42766730Y-19268072D01*
X43593271Y-19268072D01*
X47251201Y-22926003D01*
G04 #@! TA.AperFunction,Conductor*
D18*
G36*
X47251201Y-22926003D02*
G01*
X47274999Y-22955001D01*
X47390724Y-23049974D01*
X47522753Y-23120546D01*
X47666014Y-23164003D01*
X47777667Y-23175000D01*
X47777677Y-23175000D01*
X47815000Y-23178676D01*
X47852323Y-23175000D01*
X49905635Y-23175000D01*
X49932394Y-23207606D01*
X50059392Y-23311831D01*
X50204284Y-23389278D01*
X50361500Y-23436969D01*
X50525000Y-23453072D01*
X51075000Y-23453072D01*
X51238500Y-23436969D01*
X51395716Y-23389278D01*
X51540608Y-23311831D01*
X51667606Y-23207606D01*
X51694365Y-23175000D01*
X52445635Y-23175000D01*
X52472394Y-23207606D01*
X52599392Y-23311831D01*
X52744284Y-23389278D01*
X52901500Y-23436969D01*
X53065000Y-23453072D01*
X53615000Y-23453072D01*
X53778500Y-23436969D01*
X53935716Y-23389278D01*
X54080608Y-23311831D01*
X54207606Y-23207606D01*
X54238112Y-23170435D01*
X55708166Y-24640490D01*
X55731965Y-24669489D01*
X55847690Y-24764462D01*
X55979719Y-24835034D01*
X56122980Y-24878491D01*
X56234633Y-24889488D01*
X56234641Y-24889488D01*
X56271966Y-24893164D01*
X56309291Y-24889488D01*
X67184109Y-24889488D01*
X67152068Y-24966842D01*
X67095000Y-25253740D01*
X67095000Y-25546260D01*
X67148456Y-25815001D01*
X45852332Y-25815001D01*
X45814999Y-25811324D01*
X45777666Y-25815001D01*
X45666013Y-25825998D01*
X45522752Y-25869455D01*
X45390723Y-25940027D01*
X45274998Y-26035000D01*
X45251200Y-26063998D01*
X35365261Y-35949938D01*
X35339278Y-35864284D01*
X35261831Y-35719392D01*
X35178137Y-35617410D01*
X35216185Y-35586185D01*
X35295537Y-35489494D01*
X35354502Y-35379180D01*
X35390812Y-35259482D01*
X35403072Y-35135000D01*
X35400000Y-35020750D01*
X35241250Y-34862000D01*
X34417000Y-34862000D01*
X34417000Y-34882000D01*
X34163000Y-34882000D01*
X34163000Y-34862000D01*
X33338750Y-34862000D01*
X33180000Y-35020750D01*
X33176928Y-35135000D01*
X33189188Y-35259482D01*
X33225498Y-35379180D01*
X33284463Y-35489494D01*
X33363815Y-35586185D01*
X33401863Y-35617410D01*
X33395635Y-35625000D01*
X32644365Y-35625000D01*
X32617606Y-35592394D01*
X32578134Y-35560000D01*
X32617606Y-35527606D01*
X32721831Y-35400608D01*
X32799278Y-35255716D01*
X32846969Y-35098500D01*
X32863072Y-34935000D01*
X32863072Y-34535000D01*
X32846969Y-34371500D01*
X32835897Y-34335000D01*
X33176928Y-34335000D01*
X33180000Y-34449250D01*
X33338750Y-34608000D01*
X34163000Y-34608000D01*
X34163000Y-33858750D01*
X34417000Y-33858750D01*
X34417000Y-34608000D01*
X35241250Y-34608000D01*
X35400000Y-34449250D01*
X35403072Y-34335000D01*
X35390812Y-34210518D01*
X35354502Y-34090820D01*
X35295537Y-33980506D01*
X35216185Y-33883815D01*
X35119494Y-33804463D01*
X35009180Y-33745498D01*
X34889482Y-33709188D01*
X34765000Y-33696928D01*
X34575750Y-33700000D01*
X34417000Y-33858750D01*
X34163000Y-33858750D01*
X34004250Y-33700000D01*
X33815000Y-33696928D01*
X33690518Y-33709188D01*
X33570820Y-33745498D01*
X33460506Y-33804463D01*
X33363815Y-33883815D01*
X33284463Y-33980506D01*
X33225498Y-34090820D01*
X33189188Y-34210518D01*
X33176928Y-34335000D01*
X32835897Y-34335000D01*
X32799278Y-34214284D01*
X32721831Y-34069392D01*
X32617606Y-33942394D01*
X32490608Y-33838169D01*
X32345716Y-33760722D01*
X32188500Y-33713031D01*
X32025000Y-33696928D01*
X31475000Y-33696928D01*
X31311500Y-33713031D01*
X31154284Y-33760722D01*
X31009392Y-33838169D01*
X30882394Y-33942394D01*
X30778169Y-34069392D01*
X30700722Y-34214284D01*
X30653031Y-34371500D01*
X30636928Y-34535000D01*
X30636928Y-34773270D01*
X29333207Y-36076992D01*
X29367932Y-35993158D01*
X29425000Y-35706260D01*
X29425000Y-35413740D01*
X29367932Y-35126842D01*
X29255990Y-34856589D01*
X29093475Y-34613368D01*
X28886632Y-34406525D01*
X28712240Y-34290000D01*
X28886632Y-34173475D01*
X29093475Y-33966632D01*
X29255990Y-33723411D01*
X29367932Y-33453158D01*
X29425000Y-33166260D01*
X29425000Y-32873740D01*
X29367932Y-32586842D01*
X29255990Y-32316589D01*
X29093475Y-32073368D01*
X28886632Y-31866525D01*
X28712240Y-31750000D01*
X28886632Y-31633475D01*
X29093475Y-31426632D01*
X29255990Y-31183411D01*
X29367932Y-30913158D01*
X29425000Y-30626260D01*
X29425000Y-30333740D01*
X29367932Y-30046842D01*
X29255990Y-29776589D01*
X29093475Y-29533368D01*
X28886632Y-29326525D01*
X28712240Y-29210000D01*
X28886632Y-29093475D01*
X29093475Y-28886632D01*
X29255990Y-28643411D01*
X29367932Y-28373158D01*
X29425000Y-28086260D01*
X29425000Y-27793740D01*
X29367932Y-27506842D01*
X29255990Y-27236589D01*
X29093475Y-26993368D01*
X28886632Y-26786525D01*
X28712240Y-26670000D01*
X28886632Y-26553475D01*
X29093475Y-26346632D01*
X29255990Y-26103411D01*
X29367932Y-25833158D01*
X29425000Y-25546260D01*
X29425000Y-25253740D01*
X29367932Y-24966842D01*
X29255990Y-24696589D01*
X29093475Y-24453368D01*
X28886632Y-24246525D01*
X28704466Y-24124805D01*
X28821355Y-24055178D01*
X29037588Y-23860269D01*
X29211641Y-23626920D01*
X29336825Y-23364099D01*
X29381476Y-23216890D01*
X29260155Y-22987000D01*
X28067000Y-22987000D01*
X28067000Y-23007000D01*
X27813000Y-23007000D01*
X27813000Y-22987000D01*
X27793000Y-22987000D01*
X27793000Y-22733000D01*
X27813000Y-22733000D01*
X27813000Y-22713000D01*
X28067000Y-22713000D01*
X28067000Y-22733000D01*
X29260155Y-22733000D01*
X29381476Y-22503110D01*
X29336825Y-22355901D01*
X29288765Y-22255001D01*
X39427677Y-22255001D01*
X39464999Y-22258677D01*
X39502321Y-22255001D01*
X39502332Y-22255001D01*
X39613985Y-22244004D01*
X39757246Y-22200547D01*
X39889275Y-22129975D01*
X40005000Y-22035002D01*
X40028803Y-22005998D01*
X42766730Y-19268072D01*
X43593271Y-19268072D01*
X47251201Y-22926003D01*
G37*
G04 #@! TD.AperFunction*
D17*
X44078333Y-16296688D02*
X44030000Y-16291928D01*
X42330000Y-16291928D01*
X42205518Y-16304188D01*
X42085820Y-16340498D01*
X41975506Y-16399463D01*
X41878815Y-16478815D01*
X41799463Y-16575506D01*
X41740498Y-16685820D01*
X41704188Y-16805518D01*
X41691928Y-16930000D01*
X41691928Y-18193270D01*
X39150198Y-20735001D01*
X29371544Y-20735001D01*
X29425000Y-20466260D01*
X29425000Y-20173740D01*
X29367932Y-19886842D01*
X29255990Y-19616589D01*
X29093475Y-19373368D01*
X28950000Y-19229893D01*
X28950000Y-18198355D01*
X30898356Y-16250000D01*
X44031645Y-16250000D01*
X44078333Y-16296688D01*
G04 #@! TA.AperFunction,Conductor*
D18*
G36*
X44078333Y-16296688D02*
G01*
X44030000Y-16291928D01*
X42330000Y-16291928D01*
X42205518Y-16304188D01*
X42085820Y-16340498D01*
X41975506Y-16399463D01*
X41878815Y-16478815D01*
X41799463Y-16575506D01*
X41740498Y-16685820D01*
X41704188Y-16805518D01*
X41691928Y-16930000D01*
X41691928Y-18193270D01*
X39150198Y-20735001D01*
X29371544Y-20735001D01*
X29425000Y-20466260D01*
X29425000Y-20173740D01*
X29367932Y-19886842D01*
X29255990Y-19616589D01*
X29093475Y-19373368D01*
X28950000Y-19229893D01*
X28950000Y-18198355D01*
X30898356Y-16250000D01*
X44031645Y-16250000D01*
X44078333Y-16296688D01*
G37*
G04 #@! TD.AperFunction*
G04 #@! TD*
M02*
