G04 #@! TF.GenerationSoftware,KiCad,Pcbnew,5.1.10*
G04 #@! TF.CreationDate,2021-08-11T21:54:59-06:00*
G04 #@! TF.ProjectId,Speedometer-Top,53706565-646f-46d6-9574-65722d546f70,rev?*
G04 #@! TF.SameCoordinates,Original*
G04 #@! TF.FileFunction,Soldermask,Top*
G04 #@! TF.FilePolarity,Negative*
%FSLAX46Y46*%
G04 Gerber Fmt 4.6, Leading zero omitted, Abs format (unit mm)*
G04 Created by KiCad (PCBNEW 5.1.10) date 2021-08-11 21:54:59*
%MOMM*%
%LPD*%
G01*
G04 APERTURE LIST*
%ADD10O,1.700000X1.700000*%
%ADD11R,1.700000X1.700000*%
%ADD12R,0.800000X0.900000*%
G04 APERTURE END LIST*
D10*
G04 #@! TO.C,U2*
X53340000Y-17780000D03*
X50800000Y-17780000D03*
X48260000Y-17780000D03*
X45720000Y-17780000D03*
D11*
X43180000Y-17780000D03*
G04 #@! TD*
G04 #@! TO.C,R6*
G36*
G01*
X53065000Y-22015000D02*
X53615000Y-22015000D01*
G75*
G02*
X53815000Y-22215000I0J-200000D01*
G01*
X53815000Y-22615000D01*
G75*
G02*
X53615000Y-22815000I-200000J0D01*
G01*
X53065000Y-22815000D01*
G75*
G02*
X52865000Y-22615000I0J200000D01*
G01*
X52865000Y-22215000D01*
G75*
G02*
X53065000Y-22015000I200000J0D01*
G01*
G37*
G36*
G01*
X53065000Y-20365000D02*
X53615000Y-20365000D01*
G75*
G02*
X53815000Y-20565000I0J-200000D01*
G01*
X53815000Y-20965000D01*
G75*
G02*
X53615000Y-21165000I-200000J0D01*
G01*
X53065000Y-21165000D01*
G75*
G02*
X52865000Y-20965000I0J200000D01*
G01*
X52865000Y-20565000D01*
G75*
G02*
X53065000Y-20365000I200000J0D01*
G01*
G37*
G04 #@! TD*
G04 #@! TO.C,R5*
G36*
G01*
X50525000Y-22015000D02*
X51075000Y-22015000D01*
G75*
G02*
X51275000Y-22215000I0J-200000D01*
G01*
X51275000Y-22615000D01*
G75*
G02*
X51075000Y-22815000I-200000J0D01*
G01*
X50525000Y-22815000D01*
G75*
G02*
X50325000Y-22615000I0J200000D01*
G01*
X50325000Y-22215000D01*
G75*
G02*
X50525000Y-22015000I200000J0D01*
G01*
G37*
G36*
G01*
X50525000Y-20365000D02*
X51075000Y-20365000D01*
G75*
G02*
X51275000Y-20565000I0J-200000D01*
G01*
X51275000Y-20965000D01*
G75*
G02*
X51075000Y-21165000I-200000J0D01*
G01*
X50525000Y-21165000D01*
G75*
G02*
X50325000Y-20965000I0J200000D01*
G01*
X50325000Y-20565000D01*
G75*
G02*
X50525000Y-20365000I200000J0D01*
G01*
G37*
G04 #@! TD*
D10*
G04 #@! TO.C,J1*
X27940000Y-43180000D03*
X25400000Y-43180000D03*
X27940000Y-40640000D03*
X25400000Y-40640000D03*
X27940000Y-38100000D03*
X25400000Y-38100000D03*
X27940000Y-35560000D03*
X25400000Y-35560000D03*
X27940000Y-33020000D03*
X25400000Y-33020000D03*
X27940000Y-30480000D03*
X25400000Y-30480000D03*
X27940000Y-27940000D03*
X25400000Y-27940000D03*
X27940000Y-25400000D03*
X25400000Y-25400000D03*
X27940000Y-22860000D03*
X25400000Y-22860000D03*
X27940000Y-20320000D03*
D11*
X25400000Y-20320000D03*
G04 #@! TD*
D10*
G04 #@! TO.C,U1*
X55880000Y-46990000D03*
X53340000Y-46990000D03*
X50800000Y-46990000D03*
X48260000Y-46990000D03*
X45720000Y-46990000D03*
X43180000Y-46990000D03*
X40640000Y-46990000D03*
X38100000Y-46990000D03*
X35560000Y-46990000D03*
X33020000Y-46990000D03*
X30480000Y-46990000D03*
X27940000Y-46990000D03*
X25400000Y-46990000D03*
X22860000Y-46990000D03*
X20320000Y-46990000D03*
D11*
X17780000Y-46990000D03*
G04 #@! TD*
G04 #@! TO.C,R4*
G36*
G01*
X63075000Y-51795000D02*
X63075000Y-52345000D01*
G75*
G02*
X62875000Y-52545000I-200000J0D01*
G01*
X62475000Y-52545000D01*
G75*
G02*
X62275000Y-52345000I0J200000D01*
G01*
X62275000Y-51795000D01*
G75*
G02*
X62475000Y-51595000I200000J0D01*
G01*
X62875000Y-51595000D01*
G75*
G02*
X63075000Y-51795000I0J-200000D01*
G01*
G37*
G36*
G01*
X64725000Y-51795000D02*
X64725000Y-52345000D01*
G75*
G02*
X64525000Y-52545000I-200000J0D01*
G01*
X64125000Y-52545000D01*
G75*
G02*
X63925000Y-52345000I0J200000D01*
G01*
X63925000Y-51795000D01*
G75*
G02*
X64125000Y-51595000I200000J0D01*
G01*
X64525000Y-51595000D01*
G75*
G02*
X64725000Y-51795000I0J-200000D01*
G01*
G37*
G04 #@! TD*
G04 #@! TO.C,R3*
G36*
G01*
X60940000Y-44725000D02*
X60940000Y-44175000D01*
G75*
G02*
X61140000Y-43975000I200000J0D01*
G01*
X61540000Y-43975000D01*
G75*
G02*
X61740000Y-44175000I0J-200000D01*
G01*
X61740000Y-44725000D01*
G75*
G02*
X61540000Y-44925000I-200000J0D01*
G01*
X61140000Y-44925000D01*
G75*
G02*
X60940000Y-44725000I0J200000D01*
G01*
G37*
G36*
G01*
X59290000Y-44725000D02*
X59290000Y-44175000D01*
G75*
G02*
X59490000Y-43975000I200000J0D01*
G01*
X59890000Y-43975000D01*
G75*
G02*
X60090000Y-44175000I0J-200000D01*
G01*
X60090000Y-44725000D01*
G75*
G02*
X59890000Y-44925000I-200000J0D01*
G01*
X59490000Y-44925000D01*
G75*
G02*
X59290000Y-44725000I0J200000D01*
G01*
G37*
G04 #@! TD*
G04 #@! TO.C,R2*
G36*
G01*
X34015000Y-35985000D02*
X34565000Y-35985000D01*
G75*
G02*
X34765000Y-36185000I0J-200000D01*
G01*
X34765000Y-36585000D01*
G75*
G02*
X34565000Y-36785000I-200000J0D01*
G01*
X34015000Y-36785000D01*
G75*
G02*
X33815000Y-36585000I0J200000D01*
G01*
X33815000Y-36185000D01*
G75*
G02*
X34015000Y-35985000I200000J0D01*
G01*
G37*
G36*
G01*
X34015000Y-34335000D02*
X34565000Y-34335000D01*
G75*
G02*
X34765000Y-34535000I0J-200000D01*
G01*
X34765000Y-34935000D01*
G75*
G02*
X34565000Y-35135000I-200000J0D01*
G01*
X34015000Y-35135000D01*
G75*
G02*
X33815000Y-34935000I0J200000D01*
G01*
X33815000Y-34535000D01*
G75*
G02*
X34015000Y-34335000I200000J0D01*
G01*
G37*
G04 #@! TD*
G04 #@! TO.C,R1*
G36*
G01*
X32025000Y-35135000D02*
X31475000Y-35135000D01*
G75*
G02*
X31275000Y-34935000I0J200000D01*
G01*
X31275000Y-34535000D01*
G75*
G02*
X31475000Y-34335000I200000J0D01*
G01*
X32025000Y-34335000D01*
G75*
G02*
X32225000Y-34535000I0J-200000D01*
G01*
X32225000Y-34935000D01*
G75*
G02*
X32025000Y-35135000I-200000J0D01*
G01*
G37*
G36*
G01*
X32025000Y-36785000D02*
X31475000Y-36785000D01*
G75*
G02*
X31275000Y-36585000I0J200000D01*
G01*
X31275000Y-36185000D01*
G75*
G02*
X31475000Y-35985000I200000J0D01*
G01*
X32025000Y-35985000D01*
G75*
G02*
X32225000Y-36185000I0J-200000D01*
G01*
X32225000Y-36585000D01*
G75*
G02*
X32025000Y-36785000I-200000J0D01*
G01*
G37*
G04 #@! TD*
D12*
G04 #@! TO.C,Q1*
X63500000Y-47260000D03*
X64450000Y-49260000D03*
X62550000Y-49260000D03*
G04 #@! TD*
D10*
G04 #@! TO.C,J2*
X71120000Y-43180000D03*
X68580000Y-43180000D03*
X71120000Y-40640000D03*
X68580000Y-40640000D03*
X71120000Y-38100000D03*
X68580000Y-38100000D03*
X71120000Y-35560000D03*
X68580000Y-35560000D03*
X71120000Y-33020000D03*
X68580000Y-33020000D03*
X71120000Y-30480000D03*
X68580000Y-30480000D03*
X71120000Y-27940000D03*
X68580000Y-27940000D03*
X71120000Y-25400000D03*
X68580000Y-25400000D03*
X71120000Y-22860000D03*
X68580000Y-22860000D03*
X71120000Y-20320000D03*
D11*
X68580000Y-20320000D03*
G04 #@! TD*
M02*
