G04 #@! TF.GenerationSoftware,KiCad,Pcbnew,5.1.10*
G04 #@! TF.CreationDate,2021-08-11T21:54:59-06:00*
G04 #@! TF.ProjectId,Speedometer-Top,53706565-646f-46d6-9574-65722d546f70,rev?*
G04 #@! TF.SameCoordinates,Original*
G04 #@! TF.FileFunction,Other,Fab,Top*
%FSLAX46Y46*%
G04 Gerber Fmt 4.6, Leading zero omitted, Abs format (unit mm)*
G04 Created by KiCad (PCBNEW 5.1.10) date 2021-08-11 21:54:59*
%MOMM*%
%LPD*%
G01*
G04 APERTURE LIST*
%ADD10C,0.100000*%
%ADD11C,0.150000*%
%ADD12C,0.060000*%
%ADD13C,0.075000*%
G04 APERTURE END LIST*
D10*
G04 #@! TO.C,U2*
X42545000Y-19050000D02*
X41910000Y-18415000D01*
X54610000Y-19050000D02*
X42545000Y-19050000D01*
X54610000Y-16510000D02*
X54610000Y-19050000D01*
X41910000Y-16510000D02*
X54610000Y-16510000D01*
X41910000Y-18415000D02*
X41910000Y-16510000D01*
G04 #@! TO.C,R6*
X52927500Y-22390000D02*
X52927500Y-20790000D01*
X53752500Y-22390000D02*
X52927500Y-22390000D01*
X53752500Y-20790000D02*
X53752500Y-22390000D01*
X52927500Y-20790000D02*
X53752500Y-20790000D01*
G04 #@! TO.C,R5*
X50387500Y-22390000D02*
X50387500Y-20790000D01*
X51212500Y-22390000D02*
X50387500Y-22390000D01*
X51212500Y-20790000D02*
X51212500Y-22390000D01*
X50387500Y-20790000D02*
X51212500Y-20790000D01*
G04 #@! TO.C,J1*
X24130000Y-20320000D02*
X25400000Y-19050000D01*
X24130000Y-44450000D02*
X24130000Y-20320000D01*
X29210000Y-44450000D02*
X24130000Y-44450000D01*
X29210000Y-19050000D02*
X29210000Y-44450000D01*
X25400000Y-19050000D02*
X29210000Y-19050000D01*
G04 #@! TO.C,U1*
X16510000Y-47625000D02*
X16510000Y-45720000D01*
X16510000Y-45720000D02*
X57150000Y-45720000D01*
X57150000Y-45720000D02*
X57150000Y-48260000D01*
X57150000Y-48260000D02*
X17145000Y-48260000D01*
X17145000Y-48260000D02*
X16510000Y-47625000D01*
G04 #@! TO.C,R4*
X64300000Y-51657500D02*
X64300000Y-52482500D01*
X64300000Y-52482500D02*
X62700000Y-52482500D01*
X62700000Y-52482500D02*
X62700000Y-51657500D01*
X62700000Y-51657500D02*
X64300000Y-51657500D01*
G04 #@! TO.C,R3*
X59715000Y-44862500D02*
X59715000Y-44037500D01*
X59715000Y-44037500D02*
X61315000Y-44037500D01*
X61315000Y-44037500D02*
X61315000Y-44862500D01*
X61315000Y-44862500D02*
X59715000Y-44862500D01*
G04 #@! TO.C,R2*
X33877500Y-34760000D02*
X34702500Y-34760000D01*
X34702500Y-34760000D02*
X34702500Y-36360000D01*
X34702500Y-36360000D02*
X33877500Y-36360000D01*
X33877500Y-36360000D02*
X33877500Y-34760000D01*
G04 #@! TO.C,R1*
X32162500Y-36360000D02*
X31337500Y-36360000D01*
X31337500Y-36360000D02*
X31337500Y-34760000D01*
X31337500Y-34760000D02*
X32162500Y-34760000D01*
X32162500Y-34760000D02*
X32162500Y-36360000D01*
G04 #@! TO.C,Q1*
X62550000Y-48960000D02*
X65000000Y-48960000D01*
X61980000Y-48410000D02*
X61980000Y-47560000D01*
X62550000Y-48960000D02*
X61980000Y-48410000D01*
X61980000Y-47560000D02*
X65020000Y-47560000D01*
X65020000Y-48960000D02*
X65020000Y-47560000D01*
G04 #@! TO.C,J2*
X67310000Y-20320000D02*
X68580000Y-19050000D01*
X67310000Y-44450000D02*
X67310000Y-20320000D01*
X72390000Y-44450000D02*
X67310000Y-44450000D01*
X72390000Y-19050000D02*
X72390000Y-44450000D01*
X68580000Y-19050000D02*
X72390000Y-19050000D01*
G04 #@! TD*
G04 #@! TO.C,U2*
D11*
X47498095Y-17232380D02*
X47498095Y-18041904D01*
X47545714Y-18137142D01*
X47593333Y-18184761D01*
X47688571Y-18232380D01*
X47879047Y-18232380D01*
X47974285Y-18184761D01*
X48021904Y-18137142D01*
X48069523Y-18041904D01*
X48069523Y-17232380D01*
X48498095Y-17327619D02*
X48545714Y-17280000D01*
X48640952Y-17232380D01*
X48879047Y-17232380D01*
X48974285Y-17280000D01*
X49021904Y-17327619D01*
X49069523Y-17422857D01*
X49069523Y-17518095D01*
X49021904Y-17660952D01*
X48450476Y-18232380D01*
X49069523Y-18232380D01*
G04 #@! TO.C,R6*
D12*
X53520952Y-21656666D02*
X53330476Y-21790000D01*
X53520952Y-21885238D02*
X53120952Y-21885238D01*
X53120952Y-21732857D01*
X53140000Y-21694761D01*
X53159047Y-21675714D01*
X53197142Y-21656666D01*
X53254285Y-21656666D01*
X53292380Y-21675714D01*
X53311428Y-21694761D01*
X53330476Y-21732857D01*
X53330476Y-21885238D01*
X53120952Y-21313809D02*
X53120952Y-21390000D01*
X53140000Y-21428095D01*
X53159047Y-21447142D01*
X53216190Y-21485238D01*
X53292380Y-21504285D01*
X53444761Y-21504285D01*
X53482857Y-21485238D01*
X53501904Y-21466190D01*
X53520952Y-21428095D01*
X53520952Y-21351904D01*
X53501904Y-21313809D01*
X53482857Y-21294761D01*
X53444761Y-21275714D01*
X53349523Y-21275714D01*
X53311428Y-21294761D01*
X53292380Y-21313809D01*
X53273333Y-21351904D01*
X53273333Y-21428095D01*
X53292380Y-21466190D01*
X53311428Y-21485238D01*
X53349523Y-21504285D01*
G04 #@! TO.C,R5*
X50980952Y-21656666D02*
X50790476Y-21790000D01*
X50980952Y-21885238D02*
X50580952Y-21885238D01*
X50580952Y-21732857D01*
X50600000Y-21694761D01*
X50619047Y-21675714D01*
X50657142Y-21656666D01*
X50714285Y-21656666D01*
X50752380Y-21675714D01*
X50771428Y-21694761D01*
X50790476Y-21732857D01*
X50790476Y-21885238D01*
X50580952Y-21294761D02*
X50580952Y-21485238D01*
X50771428Y-21504285D01*
X50752380Y-21485238D01*
X50733333Y-21447142D01*
X50733333Y-21351904D01*
X50752380Y-21313809D01*
X50771428Y-21294761D01*
X50809523Y-21275714D01*
X50904761Y-21275714D01*
X50942857Y-21294761D01*
X50961904Y-21313809D01*
X50980952Y-21351904D01*
X50980952Y-21447142D01*
X50961904Y-21485238D01*
X50942857Y-21504285D01*
G04 #@! TO.C,J1*
D11*
X26122380Y-32083333D02*
X26836666Y-32083333D01*
X26979523Y-32130952D01*
X27074761Y-32226190D01*
X27122380Y-32369047D01*
X27122380Y-32464285D01*
X27122380Y-31083333D02*
X27122380Y-31654761D01*
X27122380Y-31369047D02*
X26122380Y-31369047D01*
X26265238Y-31464285D01*
X26360476Y-31559523D01*
X26408095Y-31654761D01*
G04 #@! TO.C,U1*
X36068095Y-46442380D02*
X36068095Y-47251904D01*
X36115714Y-47347142D01*
X36163333Y-47394761D01*
X36258571Y-47442380D01*
X36449047Y-47442380D01*
X36544285Y-47394761D01*
X36591904Y-47347142D01*
X36639523Y-47251904D01*
X36639523Y-46442380D01*
X37639523Y-47442380D02*
X37068095Y-47442380D01*
X37353809Y-47442380D02*
X37353809Y-46442380D01*
X37258571Y-46585238D01*
X37163333Y-46680476D01*
X37068095Y-46728095D01*
G04 #@! TO.C,R4*
D12*
X63433333Y-52250952D02*
X63300000Y-52060476D01*
X63204761Y-52250952D02*
X63204761Y-51850952D01*
X63357142Y-51850952D01*
X63395238Y-51870000D01*
X63414285Y-51889047D01*
X63433333Y-51927142D01*
X63433333Y-51984285D01*
X63414285Y-52022380D01*
X63395238Y-52041428D01*
X63357142Y-52060476D01*
X63204761Y-52060476D01*
X63776190Y-51984285D02*
X63776190Y-52250952D01*
X63680952Y-51831904D02*
X63585714Y-52117619D01*
X63833333Y-52117619D01*
G04 #@! TO.C,R3*
X60448333Y-44630952D02*
X60315000Y-44440476D01*
X60219761Y-44630952D02*
X60219761Y-44230952D01*
X60372142Y-44230952D01*
X60410238Y-44250000D01*
X60429285Y-44269047D01*
X60448333Y-44307142D01*
X60448333Y-44364285D01*
X60429285Y-44402380D01*
X60410238Y-44421428D01*
X60372142Y-44440476D01*
X60219761Y-44440476D01*
X60581666Y-44230952D02*
X60829285Y-44230952D01*
X60695952Y-44383333D01*
X60753095Y-44383333D01*
X60791190Y-44402380D01*
X60810238Y-44421428D01*
X60829285Y-44459523D01*
X60829285Y-44554761D01*
X60810238Y-44592857D01*
X60791190Y-44611904D01*
X60753095Y-44630952D01*
X60638809Y-44630952D01*
X60600714Y-44611904D01*
X60581666Y-44592857D01*
G04 #@! TO.C,R2*
X34470952Y-35626666D02*
X34280476Y-35760000D01*
X34470952Y-35855238D02*
X34070952Y-35855238D01*
X34070952Y-35702857D01*
X34090000Y-35664761D01*
X34109047Y-35645714D01*
X34147142Y-35626666D01*
X34204285Y-35626666D01*
X34242380Y-35645714D01*
X34261428Y-35664761D01*
X34280476Y-35702857D01*
X34280476Y-35855238D01*
X34109047Y-35474285D02*
X34090000Y-35455238D01*
X34070952Y-35417142D01*
X34070952Y-35321904D01*
X34090000Y-35283809D01*
X34109047Y-35264761D01*
X34147142Y-35245714D01*
X34185238Y-35245714D01*
X34242380Y-35264761D01*
X34470952Y-35493333D01*
X34470952Y-35245714D01*
G04 #@! TO.C,R1*
X31930952Y-35626666D02*
X31740476Y-35760000D01*
X31930952Y-35855238D02*
X31530952Y-35855238D01*
X31530952Y-35702857D01*
X31550000Y-35664761D01*
X31569047Y-35645714D01*
X31607142Y-35626666D01*
X31664285Y-35626666D01*
X31702380Y-35645714D01*
X31721428Y-35664761D01*
X31740476Y-35702857D01*
X31740476Y-35855238D01*
X31930952Y-35245714D02*
X31930952Y-35474285D01*
X31930952Y-35360000D02*
X31530952Y-35360000D01*
X31588095Y-35398095D01*
X31626190Y-35436190D01*
X31645238Y-35474285D01*
G04 #@! TO.C,Q1*
D13*
X63452380Y-48533809D02*
X63404761Y-48510000D01*
X63357142Y-48462380D01*
X63285714Y-48390952D01*
X63238095Y-48367142D01*
X63190476Y-48367142D01*
X63214285Y-48486190D02*
X63166666Y-48462380D01*
X63119047Y-48414761D01*
X63095238Y-48319523D01*
X63095238Y-48152857D01*
X63119047Y-48057619D01*
X63166666Y-48010000D01*
X63214285Y-47986190D01*
X63309523Y-47986190D01*
X63357142Y-48010000D01*
X63404761Y-48057619D01*
X63428571Y-48152857D01*
X63428571Y-48319523D01*
X63404761Y-48414761D01*
X63357142Y-48462380D01*
X63309523Y-48486190D01*
X63214285Y-48486190D01*
X63904761Y-48486190D02*
X63619047Y-48486190D01*
X63761904Y-48486190D02*
X63761904Y-47986190D01*
X63714285Y-48057619D01*
X63666666Y-48105238D01*
X63619047Y-48129047D01*
G04 #@! TO.C,J2*
D11*
X69302380Y-32083333D02*
X70016666Y-32083333D01*
X70159523Y-32130952D01*
X70254761Y-32226190D01*
X70302380Y-32369047D01*
X70302380Y-32464285D01*
X69397619Y-31654761D02*
X69350000Y-31607142D01*
X69302380Y-31511904D01*
X69302380Y-31273809D01*
X69350000Y-31178571D01*
X69397619Y-31130952D01*
X69492857Y-31083333D01*
X69588095Y-31083333D01*
X69730952Y-31130952D01*
X70302380Y-31702380D01*
X70302380Y-31083333D01*
G04 #@! TD*
M02*
