M48
INCH,TZ
T1C0.0157
T2C0.0394
%
G90
G05
T1
X6500Y-6500
X6500Y-8000
X6500Y-9500
X6500Y-11000
X6500Y-12500
X6500Y-14000
X6500Y-15500
X6500Y-17000
X6500Y-20000
X8000Y-6500
X8000Y-8000
X8000Y-9500
X8000Y-11000
X8000Y-12500
X8000Y-14000
X8000Y-15500
X8000Y-17000
X8000Y-20000
X9500Y-6500
X9500Y-20000
X11000Y-20000
X12000Y-8000
X12500Y-9500
X12500Y-11000
X12500Y-12500
X12500Y-20000
X14000Y-6500
X14000Y-8000
X14000Y-9500
X14000Y-11000
X14000Y-12500
X14000Y-20000
X15500Y-6500
X15500Y-8000
X15500Y-9500
X15500Y-11000
X15500Y-20000
X17000Y-8000
X17000Y-9500
X18000Y-20000
X19500Y-20000
X21000Y-20000
X22000Y-6500
X22000Y-8000
X22500Y-20000
X23500Y-6500
X23500Y-8000
X23500Y-18500
X24000Y-20000
X25000Y-6500
X25000Y-8000
X25500Y-17500
X26500Y-6500
X26500Y-20000
X28000Y-6500
X28000Y-18500
X28000Y-20000
X29500Y-6500
X29500Y-8000
X29500Y-9500
X29500Y-11000
X29500Y-12500
X29500Y-14000
X29500Y-15500
X29500Y-17000
X29500Y-18500
X29500Y-20000
X31000Y-6500
X31000Y-8000
X31000Y-9500
X31000Y-11000
X31000Y-12500
X31000Y-14000
X31000Y-15500
X31000Y-17000
X31000Y-18500
X31000Y-20000
T2
X7000Y-18500
X8000Y-18500
X9000Y-18500
X10000Y-8000
X10000Y-9000
X10000Y-10000
X10000Y-11000
X10000Y-12000
X10000Y-13000
X10000Y-14000
X10000Y-15000
X10000Y-16000
X10000Y-17000
X10000Y-18500
X11000Y-8000
X11000Y-9000
X11000Y-10000
X11000Y-11000
X11000Y-12000
X11000Y-13000
X11000Y-14000
X11000Y-15000
X11000Y-16000
X11000Y-17000
X11000Y-18500
X12000Y-18500
X13000Y-18500
X14000Y-18500
X15000Y-18500
X16000Y-18500
X17000Y-7000
X17000Y-18500
X18000Y-7000
X18000Y-18500
X19000Y-7000
X19000Y-18500
X20000Y-7000
X20000Y-18500
X21000Y-7000
X21000Y-18500
X22000Y-18500
X27000Y-8000
X27000Y-9000
X27000Y-10000
X27000Y-11000
X27000Y-12000
X27000Y-13000
X27000Y-14000
X27000Y-15000
X27000Y-16000
X27000Y-17000
X28000Y-8000
X28000Y-9000
X28000Y-10000
X28000Y-11000
X28000Y-12000
X28000Y-13000
X28000Y-14000
X28000Y-15000
X28000Y-16000
X28000Y-17000
T0
M30
