G04 #@! TF.GenerationSoftware,KiCad,Pcbnew,5.1.10*
G04 #@! TF.CreationDate,2021-08-11T21:54:59-06:00*
G04 #@! TF.ProjectId,Speedometer-Top,53706565-646f-46d6-9574-65722d546f70,rev?*
G04 #@! TF.SameCoordinates,Original*
G04 #@! TF.FileFunction,Legend,Top*
G04 #@! TF.FilePolarity,Positive*
%FSLAX46Y46*%
G04 Gerber Fmt 4.6, Leading zero omitted, Abs format (unit mm)*
G04 Created by KiCad (PCBNEW 5.1.10) date 2021-08-11 21:54:59*
%MOMM*%
%LPD*%
G01*
G04 APERTURE LIST*
%ADD10C,0.120000*%
%ADD11C,0.150000*%
G04 APERTURE END LIST*
D10*
G04 #@! TO.C,U2*
X41850000Y-19110000D02*
X41850000Y-17780000D01*
X43180000Y-19110000D02*
X41850000Y-19110000D01*
X44450000Y-19110000D02*
X44450000Y-16450000D01*
X44450000Y-16450000D02*
X54670000Y-16450000D01*
X44450000Y-19110000D02*
X54670000Y-19110000D01*
X54670000Y-19110000D02*
X54670000Y-16450000D01*
G04 #@! TO.C,R6*
X52817500Y-21352742D02*
X52817500Y-21827258D01*
X53862500Y-21352742D02*
X53862500Y-21827258D01*
G04 #@! TO.C,R5*
X50277500Y-21352742D02*
X50277500Y-21827258D01*
X51322500Y-21352742D02*
X51322500Y-21827258D01*
G04 #@! TO.C,J1*
X24070000Y-18990000D02*
X25400000Y-18990000D01*
X24070000Y-20320000D02*
X24070000Y-18990000D01*
X26670000Y-18990000D02*
X29270000Y-18990000D01*
X26670000Y-21590000D02*
X26670000Y-18990000D01*
X24070000Y-21590000D02*
X26670000Y-21590000D01*
X29270000Y-18990000D02*
X29270000Y-44510000D01*
X24070000Y-21590000D02*
X24070000Y-44510000D01*
X24070000Y-44510000D02*
X29270000Y-44510000D01*
G04 #@! TO.C,U1*
X57210000Y-48320000D02*
X57210000Y-45660000D01*
X19050000Y-48320000D02*
X57210000Y-48320000D01*
X19050000Y-45660000D02*
X57210000Y-45660000D01*
X19050000Y-48320000D02*
X19050000Y-45660000D01*
X17780000Y-48320000D02*
X16450000Y-48320000D01*
X16450000Y-48320000D02*
X16450000Y-46990000D01*
G04 #@! TO.C,R4*
X63737258Y-52592500D02*
X63262742Y-52592500D01*
X63737258Y-51547500D02*
X63262742Y-51547500D01*
G04 #@! TO.C,R3*
X60277742Y-43927500D02*
X60752258Y-43927500D01*
X60277742Y-44972500D02*
X60752258Y-44972500D01*
G04 #@! TO.C,R2*
X34812500Y-35322742D02*
X34812500Y-35797258D01*
X33767500Y-35322742D02*
X33767500Y-35797258D01*
G04 #@! TO.C,R1*
X31227500Y-35797258D02*
X31227500Y-35322742D01*
X32272500Y-35797258D02*
X32272500Y-35322742D01*
G04 #@! TO.C,Q1*
X65080000Y-47500000D02*
X64150000Y-47500000D01*
X61920000Y-47500000D02*
X62850000Y-47500000D01*
X61920000Y-47500000D02*
X61920000Y-49660000D01*
X65080000Y-47500000D02*
X65080000Y-48960000D01*
G04 #@! TO.C,J2*
X67250000Y-18990000D02*
X68580000Y-18990000D01*
X67250000Y-20320000D02*
X67250000Y-18990000D01*
X69850000Y-18990000D02*
X72450000Y-18990000D01*
X69850000Y-21590000D02*
X69850000Y-18990000D01*
X67250000Y-21590000D02*
X69850000Y-21590000D01*
X72450000Y-18990000D02*
X72450000Y-44510000D01*
X67250000Y-21590000D02*
X67250000Y-44510000D01*
X67250000Y-44510000D02*
X72450000Y-44510000D01*
G04 #@! TO.C,U2*
D11*
X40302380Y-18541904D02*
X41111904Y-18541904D01*
X41207142Y-18494285D01*
X41254761Y-18446666D01*
X41302380Y-18351428D01*
X41302380Y-18160952D01*
X41254761Y-18065714D01*
X41207142Y-18018095D01*
X41111904Y-17970476D01*
X40302380Y-17970476D01*
X40397619Y-17541904D02*
X40350000Y-17494285D01*
X40302380Y-17399047D01*
X40302380Y-17160952D01*
X40350000Y-17065714D01*
X40397619Y-17018095D01*
X40492857Y-16970476D01*
X40588095Y-16970476D01*
X40730952Y-17018095D01*
X41302380Y-17589523D01*
X41302380Y-16970476D01*
G04 #@! TO.C,R6*
X53792380Y-24296666D02*
X53316190Y-24630000D01*
X53792380Y-24868095D02*
X52792380Y-24868095D01*
X52792380Y-24487142D01*
X52840000Y-24391904D01*
X52887619Y-24344285D01*
X52982857Y-24296666D01*
X53125714Y-24296666D01*
X53220952Y-24344285D01*
X53268571Y-24391904D01*
X53316190Y-24487142D01*
X53316190Y-24868095D01*
X52792380Y-23439523D02*
X52792380Y-23630000D01*
X52840000Y-23725238D01*
X52887619Y-23772857D01*
X53030476Y-23868095D01*
X53220952Y-23915714D01*
X53601904Y-23915714D01*
X53697142Y-23868095D01*
X53744761Y-23820476D01*
X53792380Y-23725238D01*
X53792380Y-23534761D01*
X53744761Y-23439523D01*
X53697142Y-23391904D01*
X53601904Y-23344285D01*
X53363809Y-23344285D01*
X53268571Y-23391904D01*
X53220952Y-23439523D01*
X53173333Y-23534761D01*
X53173333Y-23725238D01*
X53220952Y-23820476D01*
X53268571Y-23868095D01*
X53363809Y-23915714D01*
G04 #@! TO.C,R5*
X51252380Y-24296666D02*
X50776190Y-24630000D01*
X51252380Y-24868095D02*
X50252380Y-24868095D01*
X50252380Y-24487142D01*
X50300000Y-24391904D01*
X50347619Y-24344285D01*
X50442857Y-24296666D01*
X50585714Y-24296666D01*
X50680952Y-24344285D01*
X50728571Y-24391904D01*
X50776190Y-24487142D01*
X50776190Y-24868095D01*
X50252380Y-23391904D02*
X50252380Y-23868095D01*
X50728571Y-23915714D01*
X50680952Y-23868095D01*
X50633333Y-23772857D01*
X50633333Y-23534761D01*
X50680952Y-23439523D01*
X50728571Y-23391904D01*
X50823809Y-23344285D01*
X51061904Y-23344285D01*
X51157142Y-23391904D01*
X51204761Y-23439523D01*
X51252380Y-23534761D01*
X51252380Y-23772857D01*
X51204761Y-23868095D01*
X51157142Y-23915714D01*
G04 #@! TO.C,J1*
X26336666Y-17442380D02*
X26336666Y-18156666D01*
X26289047Y-18299523D01*
X26193809Y-18394761D01*
X26050952Y-18442380D01*
X25955714Y-18442380D01*
X27336666Y-18442380D02*
X26765238Y-18442380D01*
X27050952Y-18442380D02*
X27050952Y-17442380D01*
X26955714Y-17585238D01*
X26860476Y-17680476D01*
X26765238Y-17728095D01*
G04 #@! TO.C,U1*
X14902380Y-47751904D02*
X15711904Y-47751904D01*
X15807142Y-47704285D01*
X15854761Y-47656666D01*
X15902380Y-47561428D01*
X15902380Y-47370952D01*
X15854761Y-47275714D01*
X15807142Y-47228095D01*
X15711904Y-47180476D01*
X14902380Y-47180476D01*
X15902380Y-46180476D02*
X15902380Y-46751904D01*
X15902380Y-46466190D02*
X14902380Y-46466190D01*
X15045238Y-46561428D01*
X15140476Y-46656666D01*
X15188095Y-46751904D01*
G04 #@! TO.C,R4*
X65873333Y-52522380D02*
X65540000Y-52046190D01*
X65301904Y-52522380D02*
X65301904Y-51522380D01*
X65682857Y-51522380D01*
X65778095Y-51570000D01*
X65825714Y-51617619D01*
X65873333Y-51712857D01*
X65873333Y-51855714D01*
X65825714Y-51950952D01*
X65778095Y-51998571D01*
X65682857Y-52046190D01*
X65301904Y-52046190D01*
X66730476Y-51855714D02*
X66730476Y-52522380D01*
X66492380Y-51474761D02*
X66254285Y-52189047D01*
X66873333Y-52189047D01*
G04 #@! TO.C,R3*
X60348333Y-43632380D02*
X60015000Y-43156190D01*
X59776904Y-43632380D02*
X59776904Y-42632380D01*
X60157857Y-42632380D01*
X60253095Y-42680000D01*
X60300714Y-42727619D01*
X60348333Y-42822857D01*
X60348333Y-42965714D01*
X60300714Y-43060952D01*
X60253095Y-43108571D01*
X60157857Y-43156190D01*
X59776904Y-43156190D01*
X60681666Y-42632380D02*
X61300714Y-42632380D01*
X60967380Y-43013333D01*
X61110238Y-43013333D01*
X61205476Y-43060952D01*
X61253095Y-43108571D01*
X61300714Y-43203809D01*
X61300714Y-43441904D01*
X61253095Y-43537142D01*
X61205476Y-43584761D01*
X61110238Y-43632380D01*
X60824523Y-43632380D01*
X60729285Y-43584761D01*
X60681666Y-43537142D01*
G04 #@! TO.C,R2*
X34742380Y-33186666D02*
X34266190Y-33520000D01*
X34742380Y-33758095D02*
X33742380Y-33758095D01*
X33742380Y-33377142D01*
X33790000Y-33281904D01*
X33837619Y-33234285D01*
X33932857Y-33186666D01*
X34075714Y-33186666D01*
X34170952Y-33234285D01*
X34218571Y-33281904D01*
X34266190Y-33377142D01*
X34266190Y-33758095D01*
X33837619Y-32805714D02*
X33790000Y-32758095D01*
X33742380Y-32662857D01*
X33742380Y-32424761D01*
X33790000Y-32329523D01*
X33837619Y-32281904D01*
X33932857Y-32234285D01*
X34028095Y-32234285D01*
X34170952Y-32281904D01*
X34742380Y-32853333D01*
X34742380Y-32234285D01*
G04 #@! TO.C,R1*
X32202380Y-33186666D02*
X31726190Y-33520000D01*
X32202380Y-33758095D02*
X31202380Y-33758095D01*
X31202380Y-33377142D01*
X31250000Y-33281904D01*
X31297619Y-33234285D01*
X31392857Y-33186666D01*
X31535714Y-33186666D01*
X31630952Y-33234285D01*
X31678571Y-33281904D01*
X31726190Y-33377142D01*
X31726190Y-33758095D01*
X32202380Y-32234285D02*
X32202380Y-32805714D01*
X32202380Y-32520000D02*
X31202380Y-32520000D01*
X31345238Y-32615238D01*
X31440476Y-32710476D01*
X31488095Y-32805714D01*
G04 #@! TO.C,Q1*
X66587619Y-48355238D02*
X66540000Y-48450476D01*
X66444761Y-48545714D01*
X66301904Y-48688571D01*
X66254285Y-48783809D01*
X66254285Y-48879047D01*
X66492380Y-48831428D02*
X66444761Y-48926666D01*
X66349523Y-49021904D01*
X66159047Y-49069523D01*
X65825714Y-49069523D01*
X65635238Y-49021904D01*
X65540000Y-48926666D01*
X65492380Y-48831428D01*
X65492380Y-48640952D01*
X65540000Y-48545714D01*
X65635238Y-48450476D01*
X65825714Y-48402857D01*
X66159047Y-48402857D01*
X66349523Y-48450476D01*
X66444761Y-48545714D01*
X66492380Y-48640952D01*
X66492380Y-48831428D01*
X66492380Y-47450476D02*
X66492380Y-48021904D01*
X66492380Y-47736190D02*
X65492380Y-47736190D01*
X65635238Y-47831428D01*
X65730476Y-47926666D01*
X65778095Y-48021904D01*
G04 #@! TO.C,J2*
X69516666Y-17442380D02*
X69516666Y-18156666D01*
X69469047Y-18299523D01*
X69373809Y-18394761D01*
X69230952Y-18442380D01*
X69135714Y-18442380D01*
X69945238Y-17537619D02*
X69992857Y-17490000D01*
X70088095Y-17442380D01*
X70326190Y-17442380D01*
X70421428Y-17490000D01*
X70469047Y-17537619D01*
X70516666Y-17632857D01*
X70516666Y-17728095D01*
X70469047Y-17870952D01*
X69897619Y-18442380D01*
X70516666Y-18442380D01*
G04 #@! TD*
M02*
