G04 #@! TF.GenerationSoftware,KiCad,Pcbnew,5.1.10*
G04 #@! TF.CreationDate,2021-08-11T21:54:59-06:00*
G04 #@! TF.ProjectId,Speedometer-Top,53706565-646f-46d6-9574-65722d546f70,rev?*
G04 #@! TF.SameCoordinates,Original*
G04 #@! TF.FileFunction,Soldermask,Bot*
G04 #@! TF.FilePolarity,Negative*
%FSLAX46Y46*%
G04 Gerber Fmt 4.6, Leading zero omitted, Abs format (unit mm)*
G04 Created by KiCad (PCBNEW 5.1.10) date 2021-08-11 21:54:59*
%MOMM*%
%LPD*%
G01*
G04 APERTURE LIST*
%ADD10O,1.700000X1.700000*%
%ADD11R,1.700000X1.700000*%
G04 APERTURE END LIST*
D10*
G04 #@! TO.C,U2*
X53340000Y-17780000D03*
X50800000Y-17780000D03*
X48260000Y-17780000D03*
X45720000Y-17780000D03*
D11*
X43180000Y-17780000D03*
G04 #@! TD*
D10*
G04 #@! TO.C,J1*
X27940000Y-43180000D03*
X25400000Y-43180000D03*
X27940000Y-40640000D03*
X25400000Y-40640000D03*
X27940000Y-38100000D03*
X25400000Y-38100000D03*
X27940000Y-35560000D03*
X25400000Y-35560000D03*
X27940000Y-33020000D03*
X25400000Y-33020000D03*
X27940000Y-30480000D03*
X25400000Y-30480000D03*
X27940000Y-27940000D03*
X25400000Y-27940000D03*
X27940000Y-25400000D03*
X25400000Y-25400000D03*
X27940000Y-22860000D03*
X25400000Y-22860000D03*
X27940000Y-20320000D03*
D11*
X25400000Y-20320000D03*
G04 #@! TD*
D10*
G04 #@! TO.C,U1*
X55880000Y-46990000D03*
X53340000Y-46990000D03*
X50800000Y-46990000D03*
X48260000Y-46990000D03*
X45720000Y-46990000D03*
X43180000Y-46990000D03*
X40640000Y-46990000D03*
X38100000Y-46990000D03*
X35560000Y-46990000D03*
X33020000Y-46990000D03*
X30480000Y-46990000D03*
X27940000Y-46990000D03*
X25400000Y-46990000D03*
X22860000Y-46990000D03*
X20320000Y-46990000D03*
D11*
X17780000Y-46990000D03*
G04 #@! TD*
D10*
G04 #@! TO.C,J2*
X71120000Y-43180000D03*
X68580000Y-43180000D03*
X71120000Y-40640000D03*
X68580000Y-40640000D03*
X71120000Y-38100000D03*
X68580000Y-38100000D03*
X71120000Y-35560000D03*
X68580000Y-35560000D03*
X71120000Y-33020000D03*
X68580000Y-33020000D03*
X71120000Y-30480000D03*
X68580000Y-30480000D03*
X71120000Y-27940000D03*
X68580000Y-27940000D03*
X71120000Y-25400000D03*
X68580000Y-25400000D03*
X71120000Y-22860000D03*
X68580000Y-22860000D03*
X71120000Y-20320000D03*
D11*
X68580000Y-20320000D03*
G04 #@! TD*
M02*
